<mxfile host="app.diagrams.net" agent="Mozilla/5.0 (Windows NT 10.0; Win64; x64) AppleWebKit/537.36 (KHTML, like Gecko) Chrome/139.0.0.0 Safari/537.36" version="28.1.2" pages="6">
  <diagram id="jL5EllLIQ67MmCXnTZcO" name="PRINCIPAL">
    <mxGraphModel grid="0" page="1" gridSize="10" guides="1" tooltips="1" connect="1" arrows="1" fold="1" pageScale="1" pageWidth="827" pageHeight="1169" math="0" shadow="0">
      <root>
        <mxCell id="0" />
        <mxCell id="1" parent="0" />
        <mxCell id="KVr01R96LGneUkX0vs8K-20" style="edgeStyle=orthogonalEdgeStyle;rounded=0;orthogonalLoop=1;jettySize=auto;html=1;entryX=0;entryY=0.5;entryDx=0;entryDy=0;strokeColor=#DF130C;" edge="1" parent="1" source="KVr01R96LGneUkX0vs8K-30" target="KVr01R96LGneUkX0vs8K-60">
          <mxGeometry relative="1" as="geometry" />
        </mxCell>
        <mxCell id="KVr01R96LGneUkX0vs8K-22" style="edgeStyle=orthogonalEdgeStyle;rounded=0;orthogonalLoop=1;jettySize=auto;html=1;entryX=0;entryY=0.5;entryDx=0;entryDy=0;strokeColor=#DB0F0F;" edge="1" parent="1" source="KVr01R96LGneUkX0vs8K-30" target="KVr01R96LGneUkX0vs8K-52">
          <mxGeometry relative="1" as="geometry">
            <mxPoint x="630" y="550" as="targetPoint" />
          </mxGeometry>
        </mxCell>
        <mxCell id="KVr01R96LGneUkX0vs8K-23" style="edgeStyle=orthogonalEdgeStyle;rounded=0;orthogonalLoop=1;jettySize=auto;html=1;entryX=0;entryY=0.5;entryDx=0;entryDy=0;strokeColor=#DB0F0F;" edge="1" parent="1" source="KVr01R96LGneUkX0vs8K-30" target="KVr01R96LGneUkX0vs8K-49">
          <mxGeometry relative="1" as="geometry" />
        </mxCell>
        <mxCell id="KVr01R96LGneUkX0vs8K-24" style="edgeStyle=orthogonalEdgeStyle;rounded=0;orthogonalLoop=1;jettySize=auto;html=1;entryX=0;entryY=0.5;entryDx=0;entryDy=0;strokeColor=#DB0F0F;" edge="1" parent="1" source="KVr01R96LGneUkX0vs8K-30" target="KVr01R96LGneUkX0vs8K-43">
          <mxGeometry relative="1" as="geometry" />
        </mxCell>
        <mxCell id="KVr01R96LGneUkX0vs8K-25" style="edgeStyle=orthogonalEdgeStyle;rounded=0;orthogonalLoop=1;jettySize=auto;html=1;entryX=0;entryY=0.5;entryDx=0;entryDy=0;strokeColor=#DB0F0F;" edge="1" parent="1" source="KVr01R96LGneUkX0vs8K-30" target="KVr01R96LGneUkX0vs8K-54">
          <mxGeometry relative="1" as="geometry" />
        </mxCell>
        <mxCell id="KVr01R96LGneUkX0vs8K-26" style="edgeStyle=orthogonalEdgeStyle;rounded=0;orthogonalLoop=1;jettySize=auto;html=1;entryX=0;entryY=0.5;entryDx=0;entryDy=0;strokeColor=#DB0F0F;" edge="1" parent="1" source="KVr01R96LGneUkX0vs8K-30" target="KVr01R96LGneUkX0vs8K-45">
          <mxGeometry relative="1" as="geometry" />
        </mxCell>
        <mxCell id="KVr01R96LGneUkX0vs8K-27" style="edgeStyle=orthogonalEdgeStyle;rounded=0;orthogonalLoop=1;jettySize=auto;html=1;entryX=0;entryY=0.5;entryDx=0;entryDy=0;strokeColor=#DB0F0F;" edge="1" parent="1" source="KVr01R96LGneUkX0vs8K-30" target="KVr01R96LGneUkX0vs8K-62">
          <mxGeometry relative="1" as="geometry" />
        </mxCell>
        <mxCell id="KVr01R96LGneUkX0vs8K-28" style="edgeStyle=orthogonalEdgeStyle;rounded=0;orthogonalLoop=1;jettySize=auto;html=1;entryX=0;entryY=0.5;entryDx=0;entryDy=0;strokeColor=#DB0F0F;" edge="1" parent="1" source="KVr01R96LGneUkX0vs8K-30" target="KVr01R96LGneUkX0vs8K-47">
          <mxGeometry relative="1" as="geometry">
            <Array as="points">
              <mxPoint x="485" y="930" />
              <mxPoint x="485" y="1250" />
              <mxPoint x="650" y="1250" />
            </Array>
          </mxGeometry>
        </mxCell>
        <mxCell id="SYhs9_iWre-nZq4GP4J0-37" style="edgeStyle=orthogonalEdgeStyle;rounded=0;orthogonalLoop=1;jettySize=auto;html=1;entryX=0;entryY=0.5;entryDx=0;entryDy=0;fillColor=#e51400;strokeColor=#B20000;" edge="1" parent="1" source="KVr01R96LGneUkX0vs8K-30" target="KVr01R96LGneUkX0vs8K-41">
          <mxGeometry relative="1" as="geometry" />
        </mxCell>
        <mxCell id="KVr01R96LGneUkX0vs8K-30" value="&lt;font style=&quot;vertical-align: inherit;&quot;&gt;&lt;font style=&quot;vertical-align: inherit;&quot;&gt;Administrador&lt;/font&gt;&lt;/font&gt;" style="shape=umlActor;verticalLabelPosition=bottom;verticalAlign=top;html=1;outlineConnect=0;" vertex="1" parent="1">
          <mxGeometry x="230" y="500" width="30" height="60" as="geometry" />
        </mxCell>
        <mxCell id="SYhs9_iWre-nZq4GP4J0-3" style="edgeStyle=orthogonalEdgeStyle;rounded=0;orthogonalLoop=1;jettySize=auto;html=1;entryX=1;entryY=0.5;entryDx=0;entryDy=0;fillColor=#d5e8d4;strokeColor=#82b366;" edge="1" parent="1" source="KVr01R96LGneUkX0vs8K-36" target="KVr01R96LGneUkX0vs8K-41">
          <mxGeometry relative="1" as="geometry">
            <Array as="points">
              <mxPoint x="990" y="960" />
              <mxPoint x="990" y="445" />
            </Array>
          </mxGeometry>
        </mxCell>
        <mxCell id="SYhs9_iWre-nZq4GP4J0-7" style="edgeStyle=orthogonalEdgeStyle;rounded=0;orthogonalLoop=1;jettySize=auto;html=1;fillColor=#d5e8d4;strokeColor=#82b366;" edge="1" parent="1" source="KVr01R96LGneUkX0vs8K-36">
          <mxGeometry relative="1" as="geometry">
            <mxPoint x="790" y="960" as="targetPoint" />
            <Array as="points">
              <mxPoint x="1100" y="960" />
              <mxPoint x="1100" y="960" />
            </Array>
          </mxGeometry>
        </mxCell>
        <mxCell id="SYhs9_iWre-nZq4GP4J0-8" style="edgeStyle=orthogonalEdgeStyle;rounded=0;orthogonalLoop=1;jettySize=auto;html=1;entryX=1;entryY=0.5;entryDx=0;entryDy=0;fillColor=#d5e8d4;strokeColor=#82b366;" edge="1" parent="1" source="KVr01R96LGneUkX0vs8K-36" target="KVr01R96LGneUkX0vs8K-60">
          <mxGeometry relative="1" as="geometry">
            <Array as="points">
              <mxPoint x="990" y="960" />
              <mxPoint x="990" y="345" />
            </Array>
          </mxGeometry>
        </mxCell>
        <mxCell id="KVr01R96LGneUkX0vs8K-36" value="&lt;font style=&quot;vertical-align: inherit;&quot; dir=&quot;auto&quot;&gt;&lt;font style=&quot;vertical-align: inherit;&quot; dir=&quot;auto&quot;&gt;Voluntarios&amp;nbsp;&lt;/font&gt;&lt;/font&gt;" style="shape=umlActor;verticalLabelPosition=bottom;verticalAlign=top;html=1;outlineConnect=0;" vertex="1" parent="1">
          <mxGeometry x="1190" y="920" width="30" height="60" as="geometry" />
        </mxCell>
        <mxCell id="tgb2tIRhIyOir0SX37_R-3" style="edgeStyle=orthogonalEdgeStyle;rounded=0;orthogonalLoop=1;jettySize=auto;html=1;entryX=1;entryY=0.314;entryDx=0;entryDy=0;entryPerimeter=0;fillColor=#a20025;strokeColor=#6F0000;" edge="1" parent="1" source="KVr01R96LGneUkX0vs8K-39" target="KVr01R96LGneUkX0vs8K-41">
          <mxGeometry relative="1" as="geometry">
            <mxPoint x="1180" y="470" as="targetPoint" />
          </mxGeometry>
        </mxCell>
        <mxCell id="KVr01R96LGneUkX0vs8K-39" value="&lt;font style=&quot;vertical-align: inherit;&quot; dir=&quot;auto&quot;&gt;&lt;font style=&quot;vertical-align: inherit;&quot; dir=&quot;auto&quot;&gt;Donantes&amp;nbsp;&lt;/font&gt;&lt;/font&gt;" style="shape=umlActor;verticalLabelPosition=bottom;verticalAlign=top;html=1;outlineConnect=0;" vertex="1" parent="1">
          <mxGeometry x="1390" y="1169" width="30" height="60" as="geometry" />
        </mxCell>
        <mxCell id="KVr01R96LGneUkX0vs8K-40" value="" style="edgeStyle=orthogonalEdgeStyle;rounded=0;orthogonalLoop=1;jettySize=auto;html=1;" edge="1" parent="1" source="KVr01R96LGneUkX0vs8K-41" target="KVr01R96LGneUkX0vs8K-52">
          <mxGeometry relative="1" as="geometry" />
        </mxCell>
        <mxCell id="KVr01R96LGneUkX0vs8K-41" value="CU2&lt;div&gt;Gestionar Usuarios&lt;/div&gt;" style="ellipse;whiteSpace=wrap;html=1;" vertex="1" parent="1">
          <mxGeometry x="650" y="410" width="140" height="70" as="geometry" />
        </mxCell>
        <mxCell id="KVr01R96LGneUkX0vs8K-42" value="" style="edgeStyle=orthogonalEdgeStyle;rounded=0;orthogonalLoop=1;jettySize=auto;html=1;" edge="1" parent="1" source="KVr01R96LGneUkX0vs8K-43" target="KVr01R96LGneUkX0vs8K-54">
          <mxGeometry relative="1" as="geometry" />
        </mxCell>
        <mxCell id="KVr01R96LGneUkX0vs8K-43" value="&lt;font style=&quot;vertical-align: inherit;&quot; dir=&quot;auto&quot;&gt;&lt;font style=&quot;vertical-align: inherit;&quot; dir=&quot;auto&quot;&gt;&lt;font style=&quot;vertical-align: inherit;&quot; dir=&quot;auto&quot;&gt;&lt;font style=&quot;vertical-align: inherit;&quot; dir=&quot;auto&quot;&gt;CU6&lt;/font&gt;&lt;/font&gt;&lt;/font&gt;&lt;/font&gt;&lt;div&gt;&lt;font style=&quot;vertical-align: inherit;&quot; dir=&quot;auto&quot;&gt;&lt;font style=&quot;vertical-align: inherit;&quot; dir=&quot;auto&quot;&gt;&lt;font style=&quot;vertical-align: inherit;&quot; dir=&quot;auto&quot;&gt;&lt;font style=&quot;vertical-align: inherit;&quot; dir=&quot;auto&quot;&gt;Gestión&amp;nbsp; campañas y&amp;nbsp;&lt;/font&gt;&lt;/font&gt;&lt;/font&gt;&lt;/font&gt;&lt;/div&gt;&lt;div&gt;&lt;font style=&quot;vertical-align: inherit;&quot; dir=&quot;auto&quot;&gt;&lt;font style=&quot;vertical-align: inherit;&quot; dir=&quot;auto&quot;&gt;Eventos&lt;/font&gt;&lt;/font&gt;&lt;/div&gt;" style="ellipse;whiteSpace=wrap;html=1;" vertex="1" parent="1">
          <mxGeometry x="650" y="819.5" width="140" height="70" as="geometry" />
        </mxCell>
        <mxCell id="KVr01R96LGneUkX0vs8K-44" value="" style="edgeStyle=orthogonalEdgeStyle;rounded=0;orthogonalLoop=1;jettySize=auto;html=1;" edge="1" parent="1" source="KVr01R96LGneUkX0vs8K-45" target="KVr01R96LGneUkX0vs8K-62">
          <mxGeometry relative="1" as="geometry" />
        </mxCell>
        <mxCell id="KVr01R96LGneUkX0vs8K-45" value="&lt;font style=&quot;vertical-align: inherit;&quot; dir=&quot;auto&quot;&gt;&lt;font style=&quot;vertical-align: inherit;&quot; dir=&quot;auto&quot;&gt;&lt;font style=&quot;vertical-align: inherit;&quot; dir=&quot;auto&quot;&gt;&lt;font style=&quot;vertical-align: inherit;&quot; dir=&quot;auto&quot;&gt;CU8&lt;/font&gt;&lt;/font&gt;&lt;/font&gt;&lt;/font&gt;&lt;div&gt;&lt;font style=&quot;vertical-align: inherit;&quot; dir=&quot;auto&quot;&gt;&lt;font style=&quot;vertical-align: inherit;&quot; dir=&quot;auto&quot;&gt;&lt;font style=&quot;vertical-align: inherit;&quot; dir=&quot;auto&quot;&gt;&lt;font style=&quot;vertical-align: inherit;&quot; dir=&quot;auto&quot;&gt;Gestión de donaciones&amp;nbsp;&lt;/font&gt;&lt;/font&gt;&lt;/font&gt;&lt;/font&gt;&lt;/div&gt;" style="ellipse;whiteSpace=wrap;html=1;" vertex="1" parent="1">
          <mxGeometry x="650" y="1020" width="140" height="70" as="geometry" />
        </mxCell>
        <mxCell id="KVr01R96LGneUkX0vs8K-47" value="&lt;font style=&quot;vertical-align: inherit;&quot; dir=&quot;auto&quot;&gt;&lt;font style=&quot;vertical-align: inherit;&quot; dir=&quot;auto&quot;&gt;&lt;font style=&quot;vertical-align: inherit;&quot; dir=&quot;auto&quot;&gt;&lt;font style=&quot;vertical-align: inherit;&quot; dir=&quot;auto&quot;&gt;CU10&lt;/font&gt;&lt;/font&gt;&lt;/font&gt;&lt;/font&gt;&lt;div&gt;&lt;font style=&quot;vertical-align: inherit;&quot; dir=&quot;auto&quot;&gt;&lt;font style=&quot;vertical-align: inherit;&quot; dir=&quot;auto&quot;&gt;&lt;font style=&quot;vertical-align: inherit;&quot; dir=&quot;auto&quot;&gt;&lt;font style=&quot;vertical-align: inherit;&quot; dir=&quot;auto&quot;&gt;Gestion de soporte&amp;nbsp;&lt;/font&gt;&lt;/font&gt;&lt;/font&gt;&lt;/font&gt;&lt;/div&gt;&lt;div&gt;&lt;font style=&quot;vertical-align: inherit;&quot; dir=&quot;auto&quot;&gt;&lt;font style=&quot;vertical-align: inherit;&quot; dir=&quot;auto&quot;&gt;técnico&amp;nbsp;&lt;/font&gt;&lt;/font&gt;&lt;/div&gt;" style="ellipse;whiteSpace=wrap;html=1;" vertex="1" parent="1">
          <mxGeometry x="650" y="1220" width="140" height="70" as="geometry" />
        </mxCell>
        <mxCell id="KVr01R96LGneUkX0vs8K-48" value="" style="edgeStyle=orthogonalEdgeStyle;rounded=0;orthogonalLoop=1;jettySize=auto;html=1;" edge="1" parent="1" source="KVr01R96LGneUkX0vs8K-49" target="KVr01R96LGneUkX0vs8K-58">
          <mxGeometry relative="1" as="geometry" />
        </mxCell>
        <mxCell id="KVr01R96LGneUkX0vs8K-49" value="&lt;font style=&quot;vertical-align: inherit;&quot; dir=&quot;auto&quot;&gt;&lt;font style=&quot;vertical-align: inherit;&quot; dir=&quot;auto&quot;&gt;CU4&lt;/font&gt;&lt;/font&gt;&lt;div&gt;&lt;font style=&quot;vertical-align: inherit;&quot; dir=&quot;auto&quot;&gt;&lt;font style=&quot;vertical-align: inherit;&quot; dir=&quot;auto&quot;&gt;Gestion de rescates&amp;nbsp;&lt;/font&gt;&lt;/font&gt;&lt;/div&gt;" style="ellipse;whiteSpace=wrap;html=1;" vertex="1" parent="1">
          <mxGeometry x="650" y="620" width="140" height="70" as="geometry" />
        </mxCell>
        <mxCell id="KVr01R96LGneUkX0vs8K-51" value="" style="edgeStyle=orthogonalEdgeStyle;rounded=0;orthogonalLoop=1;jettySize=auto;html=1;" edge="1" parent="1" source="KVr01R96LGneUkX0vs8K-52" target="KVr01R96LGneUkX0vs8K-49">
          <mxGeometry relative="1" as="geometry" />
        </mxCell>
        <mxCell id="KVr01R96LGneUkX0vs8K-52" value="&lt;font style=&quot;vertical-align: inherit;&quot; dir=&quot;auto&quot;&gt;&lt;font style=&quot;vertical-align: inherit;&quot; dir=&quot;auto&quot;&gt;&lt;font style=&quot;vertical-align: inherit;&quot; dir=&quot;auto&quot;&gt;&lt;font style=&quot;vertical-align: inherit;&quot; dir=&quot;auto&quot;&gt;CU3&lt;/font&gt;&lt;/font&gt;&lt;/font&gt;&lt;/font&gt;&lt;div&gt;&lt;font style=&quot;vertical-align: inherit;&quot; dir=&quot;auto&quot;&gt;&lt;font style=&quot;vertical-align: inherit;&quot; dir=&quot;auto&quot;&gt;Gestión de perfil de&amp;nbsp;&lt;/font&gt;&lt;/font&gt;&lt;/div&gt;&lt;div&gt;&lt;font style=&quot;vertical-align: inherit;&quot; dir=&quot;auto&quot;&gt;&lt;font style=&quot;vertical-align: inherit;&quot; dir=&quot;auto&quot;&gt;fundación&lt;/font&gt;&lt;/font&gt;&lt;br&gt;&lt;div&gt;&lt;font style=&quot;vertical-align: inherit;&quot; dir=&quot;auto&quot;&gt;&lt;font style=&quot;vertical-align: inherit;&quot; dir=&quot;auto&quot;&gt;&lt;br&gt;&lt;/font&gt;&lt;/font&gt;&lt;/div&gt;&lt;/div&gt;" style="ellipse;whiteSpace=wrap;html=1;" vertex="1" parent="1">
          <mxGeometry x="650" y="510" width="140" height="70" as="geometry" />
        </mxCell>
        <mxCell id="KVr01R96LGneUkX0vs8K-53" value="" style="edgeStyle=orthogonalEdgeStyle;rounded=0;orthogonalLoop=1;jettySize=auto;html=1;" edge="1" parent="1" source="KVr01R96LGneUkX0vs8K-54" target="KVr01R96LGneUkX0vs8K-45">
          <mxGeometry relative="1" as="geometry" />
        </mxCell>
        <mxCell id="KVr01R96LGneUkX0vs8K-54" value="&lt;font style=&quot;vertical-align: inherit;&quot; dir=&quot;auto&quot;&gt;&lt;font style=&quot;vertical-align: inherit;&quot; dir=&quot;auto&quot;&gt;CU7&lt;/font&gt;&lt;/font&gt;&lt;div&gt;&lt;font style=&quot;vertical-align: inherit;&quot; dir=&quot;auto&quot;&gt;&lt;font style=&quot;vertical-align: inherit;&quot; dir=&quot;auto&quot;&gt;Gestion de voluntariado&amp;nbsp;&lt;/font&gt;&lt;/font&gt;&lt;/div&gt;" style="ellipse;whiteSpace=wrap;html=1;" vertex="1" parent="1">
          <mxGeometry x="650" y="920" width="140" height="70" as="geometry" />
        </mxCell>
        <mxCell id="KVr01R96LGneUkX0vs8K-57" value="" style="edgeStyle=orthogonalEdgeStyle;rounded=0;orthogonalLoop=1;jettySize=auto;html=1;" edge="1" parent="1" source="KVr01R96LGneUkX0vs8K-58" target="KVr01R96LGneUkX0vs8K-43">
          <mxGeometry relative="1" as="geometry" />
        </mxCell>
        <mxCell id="KVr01R96LGneUkX0vs8K-58" value="&lt;font style=&quot;vertical-align: inherit;&quot; dir=&quot;auto&quot;&gt;&lt;font style=&quot;vertical-align: inherit;&quot; dir=&quot;auto&quot;&gt;&lt;font style=&quot;vertical-align: inherit;&quot; dir=&quot;auto&quot;&gt;&lt;font style=&quot;vertical-align: inherit;&quot; dir=&quot;auto&quot;&gt;&lt;font style=&quot;vertical-align: inherit;&quot; dir=&quot;auto&quot;&gt;&lt;font style=&quot;vertical-align: inherit;&quot; dir=&quot;auto&quot;&gt;&lt;font style=&quot;vertical-align: inherit;&quot; dir=&quot;auto&quot;&gt;&lt;font style=&quot;vertical-align: inherit;&quot; dir=&quot;auto&quot;&gt;CU5&lt;/font&gt;&lt;/font&gt;&lt;/font&gt;&lt;/font&gt;&lt;/font&gt;&lt;/font&gt;&lt;/font&gt;&lt;/font&gt;&lt;div&gt;&lt;font style=&quot;vertical-align: inherit;&quot; dir=&quot;auto&quot;&gt;&lt;font style=&quot;vertical-align: inherit;&quot; dir=&quot;auto&quot;&gt;&lt;font style=&quot;vertical-align: inherit;&quot; dir=&quot;auto&quot;&gt;&lt;font style=&quot;vertical-align: inherit;&quot; dir=&quot;auto&quot;&gt;&lt;font style=&quot;vertical-align: inherit;&quot; dir=&quot;auto&quot;&gt;&lt;font style=&quot;vertical-align: inherit;&quot; dir=&quot;auto&quot;&gt;Gestión de adopciones&amp;nbsp;&amp;nbsp;&lt;/font&gt;&lt;/font&gt;&lt;/font&gt;&lt;/font&gt;&lt;/font&gt;&lt;/font&gt;&lt;/div&gt;" style="ellipse;whiteSpace=wrap;html=1;" vertex="1" parent="1">
          <mxGeometry x="650" y="720" width="140" height="70" as="geometry" />
        </mxCell>
        <mxCell id="KVr01R96LGneUkX0vs8K-59" value="" style="edgeStyle=orthogonalEdgeStyle;rounded=0;orthogonalLoop=1;jettySize=auto;html=1;" edge="1" parent="1" source="KVr01R96LGneUkX0vs8K-60" target="KVr01R96LGneUkX0vs8K-41">
          <mxGeometry relative="1" as="geometry" />
        </mxCell>
        <mxCell id="KVr01R96LGneUkX0vs8K-60" value="&lt;div&gt;CU1&lt;/div&gt;Iniciar sesión&amp;nbsp;&lt;div&gt;&lt;br&gt;&lt;/div&gt;" style="ellipse;whiteSpace=wrap;html=1;" vertex="1" parent="1">
          <mxGeometry x="650" y="310" width="140" height="70" as="geometry" />
        </mxCell>
        <mxCell id="KVr01R96LGneUkX0vs8K-61" value="" style="edgeStyle=orthogonalEdgeStyle;rounded=0;orthogonalLoop=1;jettySize=auto;html=1;" edge="1" parent="1" source="KVr01R96LGneUkX0vs8K-62" target="KVr01R96LGneUkX0vs8K-47">
          <mxGeometry relative="1" as="geometry" />
        </mxCell>
        <mxCell id="KVr01R96LGneUkX0vs8K-62" value="&lt;font style=&quot;vertical-align: inherit;&quot; dir=&quot;auto&quot;&gt;&lt;font style=&quot;vertical-align: inherit;&quot; dir=&quot;auto&quot;&gt;CU9&lt;/font&gt;&lt;/font&gt;&lt;div&gt;&lt;font style=&quot;vertical-align: inherit;&quot; dir=&quot;auto&quot;&gt;&lt;font style=&quot;vertical-align: inherit;&quot; dir=&quot;auto&quot;&gt;Gestion de reportes estadísticos&lt;/font&gt;&lt;/font&gt;&lt;/div&gt;" style="ellipse;whiteSpace=wrap;html=1;" vertex="1" parent="1">
          <mxGeometry x="650" y="1120" width="142.5" height="70" as="geometry" />
        </mxCell>
        <mxCell id="KVr01R96LGneUkX0vs8K-63" style="edgeStyle=orthogonalEdgeStyle;rounded=0;orthogonalLoop=1;jettySize=auto;html=1;entryX=0;entryY=0.714;entryDx=0;entryDy=0;entryPerimeter=0;strokeColor=#DB0F0F;" edge="1" parent="1" source="KVr01R96LGneUkX0vs8K-30" target="KVr01R96LGneUkX0vs8K-58">
          <mxGeometry relative="1" as="geometry" />
        </mxCell>
        <mxCell id="SYhs9_iWre-nZq4GP4J0-13" style="edgeStyle=orthogonalEdgeStyle;rounded=0;orthogonalLoop=1;jettySize=auto;html=1;entryX=0.5;entryY=0;entryDx=0;entryDy=0;fillColor=#e3c800;strokeColor=#B09500;" edge="1" parent="1" source="SYhs9_iWre-nZq4GP4J0-9" target="KVr01R96LGneUkX0vs8K-60">
          <mxGeometry relative="1" as="geometry" />
        </mxCell>
        <mxCell id="SYhs9_iWre-nZq4GP4J0-18" style="edgeStyle=orthogonalEdgeStyle;rounded=0;orthogonalLoop=1;jettySize=auto;html=1;entryX=1;entryY=0.5;entryDx=0;entryDy=0;fillColor=#e3c800;strokeColor=#B09500;" edge="1" parent="1" source="SYhs9_iWre-nZq4GP4J0-9" target="KVr01R96LGneUkX0vs8K-58">
          <mxGeometry relative="1" as="geometry" />
        </mxCell>
        <mxCell id="SYhs9_iWre-nZq4GP4J0-20" style="edgeStyle=orthogonalEdgeStyle;rounded=0;orthogonalLoop=1;jettySize=auto;html=1;entryX=1;entryY=0.5;entryDx=0;entryDy=0;fillColor=#e3c800;strokeColor=#B09500;" edge="1" parent="1" source="SYhs9_iWre-nZq4GP4J0-9" target="KVr01R96LGneUkX0vs8K-54">
          <mxGeometry relative="1" as="geometry" />
        </mxCell>
        <mxCell id="SYhs9_iWre-nZq4GP4J0-21" style="edgeStyle=orthogonalEdgeStyle;rounded=0;orthogonalLoop=1;jettySize=auto;html=1;entryX=1;entryY=0.5;entryDx=0;entryDy=0;fillColor=#e3c800;strokeColor=#B09500;" edge="1" parent="1" source="SYhs9_iWre-nZq4GP4J0-9" target="KVr01R96LGneUkX0vs8K-45">
          <mxGeometry relative="1" as="geometry" />
        </mxCell>
        <mxCell id="SYhs9_iWre-nZq4GP4J0-22" style="edgeStyle=orthogonalEdgeStyle;rounded=0;orthogonalLoop=1;jettySize=auto;html=1;entryX=1;entryY=0.5;entryDx=0;entryDy=0;fillColor=#e3c800;strokeColor=#B09500;" edge="1" parent="1" source="SYhs9_iWre-nZq4GP4J0-9" target="KVr01R96LGneUkX0vs8K-62">
          <mxGeometry relative="1" as="geometry">
            <Array as="points">
              <mxPoint x="1020" y="310" />
              <mxPoint x="1020" y="1160" />
              <mxPoint x="790" y="1160" />
              <mxPoint x="790" y="1155" />
            </Array>
          </mxGeometry>
        </mxCell>
        <mxCell id="SYhs9_iWre-nZq4GP4J0-9" value="&lt;font style=&quot;vertical-align: inherit;&quot; dir=&quot;auto&quot;&gt;&lt;font style=&quot;vertical-align: inherit;&quot; dir=&quot;auto&quot;&gt;Fundación&amp;nbsp;&lt;/font&gt;&lt;/font&gt;" style="shape=umlActor;verticalLabelPosition=bottom;verticalAlign=top;html=1;outlineConnect=0;" vertex="1" parent="1">
          <mxGeometry x="1250" y="280" width="30" height="60" as="geometry" />
        </mxCell>
        <mxCell id="SYhs9_iWre-nZq4GP4J0-15" style="edgeStyle=orthogonalEdgeStyle;rounded=0;orthogonalLoop=1;jettySize=auto;html=1;entryX=1.007;entryY=0.667;entryDx=0;entryDy=0;entryPerimeter=0;fillColor=#e3c800;strokeColor=#B09500;" edge="1" parent="1" source="SYhs9_iWre-nZq4GP4J0-9" target="KVr01R96LGneUkX0vs8K-52">
          <mxGeometry relative="1" as="geometry" />
        </mxCell>
        <mxCell id="SYhs9_iWre-nZq4GP4J0-16" style="edgeStyle=orthogonalEdgeStyle;rounded=0;orthogonalLoop=1;jettySize=auto;html=1;entryX=0.998;entryY=0.638;entryDx=0;entryDy=0;entryPerimeter=0;fillColor=#e3c800;strokeColor=#B09500;" edge="1" parent="1" source="SYhs9_iWre-nZq4GP4J0-9" target="KVr01R96LGneUkX0vs8K-49">
          <mxGeometry relative="1" as="geometry" />
        </mxCell>
        <mxCell id="SYhs9_iWre-nZq4GP4J0-19" style="edgeStyle=orthogonalEdgeStyle;rounded=0;orthogonalLoop=1;jettySize=auto;html=1;entryX=0.998;entryY=0.626;entryDx=0;entryDy=0;entryPerimeter=0;fillColor=#e3c800;strokeColor=#B09500;" edge="1" parent="1" source="SYhs9_iWre-nZq4GP4J0-9" target="KVr01R96LGneUkX0vs8K-43">
          <mxGeometry relative="1" as="geometry" />
        </mxCell>
        <mxCell id="SYhs9_iWre-nZq4GP4J0-26" style="edgeStyle=orthogonalEdgeStyle;rounded=0;orthogonalLoop=1;jettySize=auto;html=1;entryX=1;entryY=0.714;entryDx=0;entryDy=0;entryPerimeter=0;fillColor=#a20025;strokeColor=#6F0000;" edge="1" parent="1" source="KVr01R96LGneUkX0vs8K-39" target="KVr01R96LGneUkX0vs8K-60">
          <mxGeometry relative="1" as="geometry" />
        </mxCell>
        <mxCell id="SYhs9_iWre-nZq4GP4J0-32" style="edgeStyle=orthogonalEdgeStyle;rounded=0;orthogonalLoop=1;jettySize=auto;html=1;entryX=1;entryY=0.5;entryDx=0;entryDy=0;fillColor=#a20025;strokeColor=#6F0000;" edge="1" parent="1" source="KVr01R96LGneUkX0vs8K-39" target="KVr01R96LGneUkX0vs8K-43">
          <mxGeometry relative="1" as="geometry">
            <Array as="points">
              <mxPoint x="1090" y="1199" />
              <mxPoint x="1090" y="850" />
              <mxPoint x="810" y="850" />
              <mxPoint x="810" y="855" />
            </Array>
          </mxGeometry>
        </mxCell>
        <mxCell id="SYhs9_iWre-nZq4GP4J0-33" style="edgeStyle=orthogonalEdgeStyle;rounded=0;orthogonalLoop=1;jettySize=auto;html=1;entryX=1;entryY=0.714;entryDx=0;entryDy=0;entryPerimeter=0;fillColor=#a20025;strokeColor=#6F0000;" edge="1" parent="1" source="KVr01R96LGneUkX0vs8K-39" target="KVr01R96LGneUkX0vs8K-45">
          <mxGeometry relative="1" as="geometry" />
        </mxCell>
        <mxCell id="tgb2tIRhIyOir0SX37_R-2" style="edgeStyle=orthogonalEdgeStyle;rounded=0;orthogonalLoop=1;jettySize=auto;html=1;fillColor=#330066;strokeColor=#6F0000;entryX=1;entryY=0.5;entryDx=0;entryDy=0;" edge="1" parent="1" source="KVr01R96LGneUkX0vs8K-39" target="KVr01R96LGneUkX0vs8K-58">
          <mxGeometry relative="1" as="geometry">
            <Array as="points">
              <mxPoint x="1090" y="1199" />
              <mxPoint x="1090" y="750" />
              <mxPoint x="790" y="750" />
            </Array>
          </mxGeometry>
        </mxCell>
        <mxCell id="75fObIMyXNUJBNvxpCiG-1" style="edgeStyle=orthogonalEdgeStyle;rounded=0;orthogonalLoop=1;jettySize=auto;html=1;fillColor=#d5e8d4;strokeColor=#82b366;" edge="1" parent="1">
          <mxGeometry relative="1" as="geometry">
            <mxPoint x="790" y="760" as="targetPoint" />
            <Array as="points">
              <mxPoint x="890" y="760" />
              <mxPoint x="890" y="760" />
            </Array>
            <mxPoint x="990" y="760" as="sourcePoint" />
          </mxGeometry>
        </mxCell>
        <mxCell id="75fObIMyXNUJBNvxpCiG-5" style="edgeStyle=orthogonalEdgeStyle;rounded=0;orthogonalLoop=1;jettySize=auto;html=1;strokeColor=#0000FF;" edge="1" parent="1" source="75fObIMyXNUJBNvxpCiG-3" target="KVr01R96LGneUkX0vs8K-49">
          <mxGeometry relative="1" as="geometry">
            <mxPoint x="1130" y="620" as="targetPoint" />
            <Array as="points">
              <mxPoint x="1040" y="620" />
              <mxPoint x="1040" y="655" />
            </Array>
          </mxGeometry>
        </mxCell>
        <mxCell id="75fObIMyXNUJBNvxpCiG-6" style="edgeStyle=orthogonalEdgeStyle;rounded=0;orthogonalLoop=1;jettySize=auto;html=1;entryX=0.986;entryY=0.671;entryDx=0;entryDy=0;entryPerimeter=0;strokeColor=#0000FF;" edge="1" parent="1" target="KVr01R96LGneUkX0vs8K-41">
          <mxGeometry relative="1" as="geometry">
            <mxPoint x="1040" y="430" as="targetPoint" />
            <mxPoint x="1240" y="620" as="sourcePoint" />
            <Array as="points">
              <mxPoint x="1231" y="620" />
              <mxPoint x="1041" y="620" />
              <mxPoint x="1041" y="457" />
            </Array>
          </mxGeometry>
        </mxCell>
        <mxCell id="75fObIMyXNUJBNvxpCiG-7" style="edgeStyle=orthogonalEdgeStyle;rounded=0;orthogonalLoop=1;jettySize=auto;html=1;entryX=1;entryY=0.714;entryDx=0;entryDy=0;entryPerimeter=0;strokeColor=#0000FF;" edge="1" parent="1" source="75fObIMyXNUJBNvxpCiG-3" target="KVr01R96LGneUkX0vs8K-58">
          <mxGeometry relative="1" as="geometry">
            <mxPoint x="1040" y="790" as="targetPoint" />
            <Array as="points">
              <mxPoint x="1040" y="620" />
              <mxPoint x="1040" y="770" />
            </Array>
          </mxGeometry>
        </mxCell>
        <mxCell id="75fObIMyXNUJBNvxpCiG-8" style="edgeStyle=orthogonalEdgeStyle;rounded=0;orthogonalLoop=1;jettySize=auto;html=1;entryX=1;entryY=0.379;entryDx=0;entryDy=0;entryPerimeter=0;strokeColor=#0000FF;" edge="1" parent="1" source="75fObIMyXNUJBNvxpCiG-3" target="KVr01R96LGneUkX0vs8K-43">
          <mxGeometry relative="1" as="geometry">
            <mxPoint x="1040" y="890" as="targetPoint" />
            <Array as="points">
              <mxPoint x="1040" y="620" />
              <mxPoint x="1040" y="846" />
            </Array>
          </mxGeometry>
        </mxCell>
        <mxCell id="75fObIMyXNUJBNvxpCiG-3" value="Ciudadano&lt;div&gt;&lt;br&gt;&lt;/div&gt;" style="shape=umlActor;verticalLabelPosition=bottom;verticalAlign=top;html=1;outlineConnect=0;" vertex="1" parent="1">
          <mxGeometry x="1241" y="590" width="30" height="60" as="geometry" />
        </mxCell>
      </root>
    </mxGraphModel>
  </diagram>
  <diagram name="Administrador" id="LKvCWmxxrUyV7K0Li9A8">
    <mxGraphModel grid="0" page="1" gridSize="10" guides="1" tooltips="1" connect="1" arrows="1" fold="1" pageScale="1" pageWidth="827" pageHeight="1169" background="#ffffff" math="0" shadow="0">
      <root>
        <mxCell id="0" />
        <mxCell id="1" parent="0" />
        <mxCell id="v9gm9MY6BJGtpiwIjxo0-111" value="" style="edgeStyle=orthogonalEdgeStyle;rounded=0;orthogonalLoop=1;jettySize=auto;html=1;" edge="1" parent="1" source="v9gm9MY6BJGtpiwIjxo0-112" target="v9gm9MY6BJGtpiwIjxo0-117">
          <mxGeometry relative="1" as="geometry" />
        </mxCell>
        <mxCell id="v9gm9MY6BJGtpiwIjxo0-112" value="&lt;font style=&quot;vertical-align: inherit;&quot;&gt;&lt;font style=&quot;vertical-align: inherit;&quot;&gt;Administrador&lt;/font&gt;&lt;/font&gt;" style="shape=umlActor;verticalLabelPosition=bottom;verticalAlign=top;html=1;outlineConnect=0;" vertex="1" parent="1">
          <mxGeometry x="140" y="480" width="30" height="60" as="geometry" />
        </mxCell>
        <mxCell id="v9gm9MY6BJGtpiwIjxo0-113" value="CU2&lt;div&gt;Gestionar Usuarios&lt;/div&gt;" style="ellipse;whiteSpace=wrap;html=1;strokeColor=light-dark(#FF3838,#FFFFFF);direction=west;" vertex="1" parent="1">
          <mxGeometry x="390" y="210" width="140" height="70" as="geometry" />
        </mxCell>
        <mxCell id="v9gm9MY6BJGtpiwIjxo0-114" value="CU09&lt;div&gt;Gestionar Reportes estadisticos&lt;/div&gt;" style="ellipse;whiteSpace=wrap;html=1;strokeColor=light-dark(#FF1919,#FFFFFF);" vertex="1" parent="1">
          <mxGeometry x="445" y="550" width="140" height="70" as="geometry" />
        </mxCell>
        <mxCell id="v9gm9MY6BJGtpiwIjxo0-117" value="&lt;div&gt;CU1&lt;/div&gt;Iniciar sesión" style="ellipse;whiteSpace=wrap;html=1;strokeColor=light-dark(#FF0000,#FFFFFF);" vertex="1" parent="1">
          <mxGeometry x="248" y="475" width="140" height="70" as="geometry" />
        </mxCell>
        <mxCell id="v9gm9MY6BJGtpiwIjxo0-118" value="" style="endArrow=block;endSize=16;endFill=0;html=1;rounded=0;exitX=0.371;exitY=0.003;exitDx=0;exitDy=0;exitPerimeter=0;" edge="1" parent="1" source="v9gm9MY6BJGtpiwIjxo0-117" target="v9gm9MY6BJGtpiwIjxo0-113">
          <mxGeometry x="-1" y="40" width="160" relative="1" as="geometry">
            <mxPoint x="210" y="375" as="sourcePoint" />
            <mxPoint x="370" y="375" as="targetPoint" />
            <Array as="points">
              <mxPoint x="300" y="245" />
            </Array>
            <mxPoint x="30" y="39" as="offset" />
          </mxGeometry>
        </mxCell>
        <mxCell id="v9gm9MY6BJGtpiwIjxo0-119" value="Include" style="edgeLabel;html=1;align=center;verticalAlign=middle;resizable=0;points=[];" connectable="0" vertex="1" parent="v9gm9MY6BJGtpiwIjxo0-118">
          <mxGeometry x="-0.11" y="1" relative="1" as="geometry">
            <mxPoint as="offset" />
          </mxGeometry>
        </mxCell>
        <mxCell id="v9gm9MY6BJGtpiwIjxo0-120" value="Include" style="endArrow=block;endSize=16;endFill=0;html=1;rounded=0;entryX=0.029;entryY=0.357;entryDx=0;entryDy=0;entryPerimeter=0;exitX=1;exitY=0.5;exitDx=0;exitDy=0;" edge="1" parent="1" source="v9gm9MY6BJGtpiwIjxo0-114" target="v9gm9MY6BJGtpiwIjxo0-144">
          <mxGeometry width="160" relative="1" as="geometry">
            <mxPoint x="720" y="510" as="sourcePoint" />
            <mxPoint x="746.9399999999998" y="562.97" as="targetPoint" />
          </mxGeometry>
        </mxCell>
        <mxCell id="v9gm9MY6BJGtpiwIjxo0-121" value="Crear&lt;div&gt;modificar&lt;/div&gt;&lt;div&gt;consultar&lt;/div&gt;&lt;div&gt;deshabilitar&amp;nbsp;&lt;/div&gt;&lt;div&gt;eliminar&lt;/div&gt;" style="ellipse;whiteSpace=wrap;html=1;" vertex="1" parent="1">
          <mxGeometry x="450" y="320" width="130" height="90" as="geometry" />
        </mxCell>
        <mxCell id="v9gm9MY6BJGtpiwIjxo0-122" value="&lt;font style=&quot;vertical-align: inherit;&quot;&gt;Crear&lt;/font&gt;&lt;div&gt;&lt;font style=&quot;vertical-align: inherit;&quot;&gt;Modificar&lt;/font&gt;&lt;br&gt;&lt;font style=&quot;vertical-align: inherit;&quot;&gt;Consultar&lt;/font&gt;&lt;/div&gt;&lt;div&gt;&lt;font style=&quot;vertical-align: inherit;&quot;&gt;deshabilitar&amp;nbsp;&lt;/font&gt;&lt;/div&gt;&lt;div&gt;&lt;font style=&quot;vertical-align: inherit;&quot;&gt;Eliminar&amp;nbsp;&lt;/font&gt;&lt;/div&gt;" style="ellipse;whiteSpace=wrap;html=1;" vertex="1" parent="1">
          <mxGeometry x="757" y="815" width="120" height="80" as="geometry" />
        </mxCell>
        <mxCell id="v9gm9MY6BJGtpiwIjxo0-123" value="&lt;div&gt;CU03&lt;/div&gt;Gestionar perfil&lt;div&gt;fundación&amp;nbsp;&lt;/div&gt;" style="ellipse;whiteSpace=wrap;html=1;strokeColor=light-dark(#FF0F0F,#FFFFFF);" vertex="1" parent="1">
          <mxGeometry x="640" y="195" width="120" height="80" as="geometry" />
        </mxCell>
        <mxCell id="v9gm9MY6BJGtpiwIjxo0-124" value="Crear&lt;div&gt;Modificar&lt;br&gt;Consultar&lt;/div&gt;&lt;div&gt;&lt;span style=&quot;background-color: transparent; color: light-dark(rgb(0, 0, 0), rgb(255, 255, 255));&quot;&gt;Eliminar&amp;nbsp;&lt;/span&gt;&lt;/div&gt;&lt;div&gt;&lt;span style=&quot;background-color: transparent; color: light-dark(rgb(0, 0, 0), rgb(255, 255, 255));&quot;&gt;Deshabilitar&lt;/span&gt;&lt;/div&gt;" style="ellipse;whiteSpace=wrap;html=1;" vertex="1" parent="1">
          <mxGeometry x="617" y="645" width="140" height="85" as="geometry" />
        </mxCell>
        <mxCell id="v9gm9MY6BJGtpiwIjxo0-125" value="CU04&lt;div&gt;Gestionar Rescates&lt;/div&gt;" style="ellipse;whiteSpace=wrap;html=1;strokeColor=light-dark(#FF0000,#FFFFFF);" vertex="1" parent="1">
          <mxGeometry x="500" y="440" width="140" height="70" as="geometry" />
        </mxCell>
        <mxCell id="v9gm9MY6BJGtpiwIjxo0-126" value="" style="endArrow=classic;html=1;rounded=0;exitX=0.5;exitY=1;exitDx=0;exitDy=0;entryX=0.5;entryY=0;entryDx=0;entryDy=0;" edge="1" parent="1" source="v9gm9MY6BJGtpiwIjxo0-144" target="v9gm9MY6BJGtpiwIjxo0-146">
          <mxGeometry width="50" height="50" relative="1" as="geometry">
            <mxPoint x="689.9974746830585" y="624.9987373415292" as="sourcePoint" />
            <mxPoint x="1010" y="755" as="targetPoint" />
            <Array as="points" />
          </mxGeometry>
        </mxCell>
        <mxCell id="v9gm9MY6BJGtpiwIjxo0-127" value="extends" style="edgeLabel;html=1;align=center;verticalAlign=middle;resizable=0;points=[];" connectable="0" vertex="1" parent="v9gm9MY6BJGtpiwIjxo0-126">
          <mxGeometry x="-0.2" relative="1" as="geometry">
            <mxPoint as="offset" />
          </mxGeometry>
        </mxCell>
        <mxCell id="v9gm9MY6BJGtpiwIjxo0-130" value="&lt;div&gt;CU05&lt;/div&gt;Gestionar Adopciones" style="ellipse;whiteSpace=wrap;html=1;strokeColor=light-dark(#FF0505,#FFFFFF);" vertex="1" parent="1">
          <mxGeometry x="747" y="430" width="120" height="80" as="geometry" />
        </mxCell>
        <mxCell id="v9gm9MY6BJGtpiwIjxo0-131" value="Include" style="endArrow=block;endSize=16;endFill=0;html=1;rounded=0;exitX=0;exitY=0.5;exitDx=0;exitDy=0;entryX=-0.008;entryY=0.625;entryDx=0;entryDy=0;entryPerimeter=0;" edge="1" parent="1" source="v9gm9MY6BJGtpiwIjxo0-113" target="v9gm9MY6BJGtpiwIjxo0-123">
          <mxGeometry width="160" relative="1" as="geometry">
            <mxPoint x="710" y="340" as="sourcePoint" />
            <mxPoint x="710" y="500" as="targetPoint" />
          </mxGeometry>
        </mxCell>
        <mxCell id="v9gm9MY6BJGtpiwIjxo0-132" value="Crear&lt;div&gt;Modificar&lt;br&gt;Consultar&lt;/div&gt;&lt;div&gt;deshabilitar&amp;nbsp;&lt;/div&gt;&lt;div&gt;Eliminar&amp;nbsp;&lt;/div&gt;" style="ellipse;whiteSpace=wrap;html=1;" vertex="1" parent="1">
          <mxGeometry x="780" y="310" width="140" height="85" as="geometry" />
        </mxCell>
        <mxCell id="v9gm9MY6BJGtpiwIjxo0-133" value="" style="endArrow=classic;html=1;rounded=0;exitX=0.5;exitY=0;exitDx=0;exitDy=0;entryX=0.5;entryY=1;entryDx=0;entryDy=0;" edge="1" parent="1" source="v9gm9MY6BJGtpiwIjxo0-130" target="v9gm9MY6BJGtpiwIjxo0-132">
          <mxGeometry width="50" height="50" relative="1" as="geometry">
            <mxPoint x="1456.5" y="545" as="sourcePoint" />
            <mxPoint x="1465" y="485" as="targetPoint" />
            <Array as="points" />
          </mxGeometry>
        </mxCell>
        <mxCell id="v9gm9MY6BJGtpiwIjxo0-134" value="extends" style="edgeLabel;html=1;align=center;verticalAlign=middle;resizable=0;points=[];" connectable="0" vertex="1" parent="v9gm9MY6BJGtpiwIjxo0-133">
          <mxGeometry x="-0.2" relative="1" as="geometry">
            <mxPoint as="offset" />
          </mxGeometry>
        </mxCell>
        <mxCell id="v9gm9MY6BJGtpiwIjxo0-135" value="Include" style="endArrow=block;endSize=16;endFill=0;html=1;rounded=0;exitX=1;exitY=0.5;exitDx=0;exitDy=0;" edge="1" parent="1" source="v9gm9MY6BJGtpiwIjxo0-125" target="v9gm9MY6BJGtpiwIjxo0-130">
          <mxGeometry width="160" relative="1" as="geometry">
            <mxPoint x="820" y="535" as="sourcePoint" />
            <mxPoint x="1120" y="575" as="targetPoint" />
          </mxGeometry>
        </mxCell>
        <mxCell id="v9gm9MY6BJGtpiwIjxo0-136" value="&lt;div&gt;&lt;font style=&quot;vertical-align: inherit;&quot;&gt;&lt;font style=&quot;vertical-align: inherit;&quot;&gt;Modificar &lt;/font&gt;&lt;/font&gt;&lt;br&gt;&lt;font style=&quot;vertical-align: inherit;&quot;&gt;&lt;font style=&quot;vertical-align: inherit;&quot;&gt;Consultar&lt;/font&gt;&lt;/font&gt;&lt;/div&gt;&lt;div&gt;&lt;font style=&quot;vertical-align: inherit;&quot;&gt;&lt;font style=&quot;vertical-align: inherit;&quot;&gt;deshabilitar&amp;nbsp;&lt;/font&gt;&lt;/font&gt;&lt;/div&gt;&lt;div&gt;&lt;font style=&quot;vertical-align: inherit;&quot;&gt;&lt;font style=&quot;vertical-align: inherit;&quot;&gt;Eliminar&amp;nbsp;&lt;/font&gt;&lt;/font&gt;&lt;/div&gt;" style="ellipse;whiteSpace=wrap;html=1;" vertex="1" parent="1">
          <mxGeometry x="600" y="310" width="140" height="85" as="geometry" />
        </mxCell>
        <mxCell id="v9gm9MY6BJGtpiwIjxo0-137" value="" style="endArrow=classic;html=1;rounded=0;entryX=0.457;entryY=1;entryDx=0;entryDy=0;entryPerimeter=0;exitX=0.5;exitY=0;exitDx=0;exitDy=0;" edge="1" parent="1" source="v9gm9MY6BJGtpiwIjxo0-125" target="v9gm9MY6BJGtpiwIjxo0-136">
          <mxGeometry width="50" height="50" relative="1" as="geometry">
            <mxPoint x="870" y="355" as="sourcePoint" />
            <mxPoint x="1188" y="683" as="targetPoint" />
            <Array as="points" />
          </mxGeometry>
        </mxCell>
        <mxCell id="v9gm9MY6BJGtpiwIjxo0-138" value="extends" style="edgeLabel;html=1;align=center;verticalAlign=middle;resizable=0;points=[];" connectable="0" vertex="1" parent="v9gm9MY6BJGtpiwIjxo0-137">
          <mxGeometry x="-0.2" relative="1" as="geometry">
            <mxPoint as="offset" />
          </mxGeometry>
        </mxCell>
        <mxCell id="v9gm9MY6BJGtpiwIjxo0-141" value="CU10&lt;div&gt;Gestion soporte tecnico&lt;/div&gt;" style="ellipse;whiteSpace=wrap;html=1;strokeColor=light-dark(#FF0000,#FFFFFF);" vertex="1" parent="1">
          <mxGeometry x="260" y="630" width="140" height="70" as="geometry" />
        </mxCell>
        <mxCell id="v9gm9MY6BJGtpiwIjxo0-143" value="&lt;font style=&quot;vertical-align: inherit;&quot;&gt;Crear&lt;/font&gt;&lt;div&gt;&lt;font style=&quot;vertical-align: inherit;&quot;&gt;Modificar&lt;/font&gt;&lt;br&gt;&lt;font style=&quot;vertical-align: inherit;&quot;&gt;Consultar&lt;/font&gt;&lt;/div&gt;&lt;div&gt;&lt;font style=&quot;vertical-align: inherit;&quot;&gt;deshabilitar&amp;nbsp;&lt;/font&gt;&lt;/div&gt;&lt;div&gt;&lt;font style=&quot;vertical-align: inherit;&quot;&gt;Eliminar&amp;nbsp;&lt;/font&gt;&lt;/div&gt;" style="ellipse;whiteSpace=wrap;html=1;" vertex="1" parent="1">
          <mxGeometry x="290" y="750" width="140" height="70" as="geometry" />
        </mxCell>
        <mxCell id="v9gm9MY6BJGtpiwIjxo0-144" value="CU06&lt;div&gt;Gestionar&amp;nbsp; campañas y eventos&lt;/div&gt;" style="ellipse;whiteSpace=wrap;html=1;strokeColor=light-dark(#FF3B00,#FFFFFF);" vertex="1" parent="1">
          <mxGeometry x="720" y="560" width="140" height="70" as="geometry" />
        </mxCell>
        <mxCell id="v9gm9MY6BJGtpiwIjxo0-145" value="extends" style="endArrow=block;endSize=16;endFill=0;html=1;rounded=0;entryX=0;entryY=0;entryDx=0;entryDy=0;" edge="1" parent="1" source="v9gm9MY6BJGtpiwIjxo0-114" target="v9gm9MY6BJGtpiwIjxo0-124">
          <mxGeometry width="160" relative="1" as="geometry">
            <mxPoint x="567" y="645" as="sourcePoint" />
            <mxPoint x="747" y="765" as="targetPoint" />
          </mxGeometry>
        </mxCell>
        <mxCell id="v9gm9MY6BJGtpiwIjxo0-146" value="&lt;font style=&quot;vertical-align: inherit;&quot;&gt;Crear&lt;/font&gt;&lt;div&gt;&lt;font style=&quot;vertical-align: inherit;&quot;&gt;Modificar&lt;/font&gt;&lt;br&gt;&lt;font style=&quot;vertical-align: inherit;&quot;&gt;Consultar&lt;/font&gt;&lt;/div&gt;&lt;div&gt;&lt;font style=&quot;vertical-align: inherit;&quot;&gt;deshabilitar&amp;nbsp;&lt;/font&gt;&lt;/div&gt;&lt;div&gt;&lt;font style=&quot;vertical-align: inherit;&quot;&gt;Eliminar&amp;nbsp;&lt;/font&gt;&lt;/div&gt;" style="ellipse;whiteSpace=wrap;html=1;" vertex="1" parent="1">
          <mxGeometry x="747" y="715" width="140" height="70" as="geometry" />
        </mxCell>
        <mxCell id="v9gm9MY6BJGtpiwIjxo0-147" value="" style="endArrow=classic;html=1;rounded=0;exitX=0.5;exitY=0;exitDx=0;exitDy=0;entryX=0.5;entryY=1;entryDx=0;entryDy=0;" edge="1" parent="1" source="v9gm9MY6BJGtpiwIjxo0-123" target="v9gm9MY6BJGtpiwIjxo0-160">
          <mxGeometry width="50" height="50" relative="1" as="geometry">
            <mxPoint x="630" y="525" as="sourcePoint" />
            <mxPoint x="660" y="325" as="targetPoint" />
            <Array as="points" />
          </mxGeometry>
        </mxCell>
        <mxCell id="v9gm9MY6BJGtpiwIjxo0-148" value="extends" style="edgeLabel;html=1;align=center;verticalAlign=middle;resizable=0;points=[];" connectable="0" vertex="1" parent="v9gm9MY6BJGtpiwIjxo0-147">
          <mxGeometry x="-0.2882" y="1" relative="1" as="geometry">
            <mxPoint as="offset" />
          </mxGeometry>
        </mxCell>
        <mxCell id="v9gm9MY6BJGtpiwIjxo0-149" value="" style="endArrow=classic;html=1;rounded=0;exitX=0.989;exitY=0.733;exitDx=0;exitDy=0;exitPerimeter=0;" edge="1" parent="1" source="v9gm9MY6BJGtpiwIjxo0-164" target="v9gm9MY6BJGtpiwIjxo0-122">
          <mxGeometry width="50" height="50" relative="1" as="geometry">
            <mxPoint x="610.8800093150357" y="814.2789255904984" as="sourcePoint" />
            <mxPoint x="600" y="900" as="targetPoint" />
            <Array as="points" />
          </mxGeometry>
        </mxCell>
        <mxCell id="v9gm9MY6BJGtpiwIjxo0-150" value="extends" style="edgeLabel;html=1;align=center;verticalAlign=middle;resizable=0;points=[];" connectable="0" vertex="1" parent="v9gm9MY6BJGtpiwIjxo0-149">
          <mxGeometry x="-0.2" relative="1" as="geometry">
            <mxPoint x="-22" as="offset" />
          </mxGeometry>
        </mxCell>
        <mxCell id="v9gm9MY6BJGtpiwIjxo0-152" value="" style="endArrow=classic;html=1;rounded=0;exitX=1;exitY=0;exitDx=0;exitDy=0;" edge="1" parent="1" source="v9gm9MY6BJGtpiwIjxo0-117" target="v9gm9MY6BJGtpiwIjxo0-125">
          <mxGeometry width="50" height="50" relative="1" as="geometry">
            <mxPoint x="390" y="625" as="sourcePoint" />
            <mxPoint x="480" y="480" as="targetPoint" />
          </mxGeometry>
        </mxCell>
        <mxCell id="v9gm9MY6BJGtpiwIjxo0-153" value="Include" style="edgeLabel;html=1;align=center;verticalAlign=middle;resizable=0;points=[];" connectable="0" vertex="1" parent="v9gm9MY6BJGtpiwIjxo0-152">
          <mxGeometry x="-0.2066" y="3" relative="1" as="geometry">
            <mxPoint as="offset" />
          </mxGeometry>
        </mxCell>
        <mxCell id="v9gm9MY6BJGtpiwIjxo0-154" value="" style="endArrow=classic;html=1;rounded=0;exitX=1;exitY=1;exitDx=0;exitDy=0;entryX=0;entryY=0.5;entryDx=0;entryDy=0;" edge="1" parent="1" source="v9gm9MY6BJGtpiwIjxo0-117" target="v9gm9MY6BJGtpiwIjxo0-114">
          <mxGeometry width="50" height="50" relative="1" as="geometry">
            <mxPoint x="580" y="545" as="sourcePoint" />
            <mxPoint x="470" y="550" as="targetPoint" />
          </mxGeometry>
        </mxCell>
        <mxCell id="v9gm9MY6BJGtpiwIjxo0-155" value="Include" style="edgeLabel;html=1;align=center;verticalAlign=middle;resizable=0;points=[];" connectable="0" vertex="1" parent="v9gm9MY6BJGtpiwIjxo0-154">
          <mxGeometry x="-0.166" y="-5" relative="1" as="geometry">
            <mxPoint x="1" as="offset" />
          </mxGeometry>
        </mxCell>
        <mxCell id="v9gm9MY6BJGtpiwIjxo0-156" value="" style="endArrow=classic;html=1;rounded=0;entryX=0.5;entryY=0;entryDx=0;entryDy=0;" edge="1" parent="1" source="v9gm9MY6BJGtpiwIjxo0-114" target="v9gm9MY6BJGtpiwIjxo0-164">
          <mxGeometry width="50" height="50" relative="1" as="geometry">
            <mxPoint x="360" y="685" as="sourcePoint" />
            <mxPoint x="510" y="785" as="targetPoint" />
          </mxGeometry>
        </mxCell>
        <mxCell id="v9gm9MY6BJGtpiwIjxo0-157" value="Include" style="edgeLabel;html=1;align=center;verticalAlign=middle;resizable=0;points=[];" connectable="0" vertex="1" parent="v9gm9MY6BJGtpiwIjxo0-156">
          <mxGeometry x="-0.1048" y="-3" relative="1" as="geometry">
            <mxPoint x="-1" as="offset" />
          </mxGeometry>
        </mxCell>
        <mxCell id="v9gm9MY6BJGtpiwIjxo0-158" value="" style="endArrow=classic;html=1;rounded=0;exitX=0.5;exitY=0;exitDx=0;exitDy=0;" edge="1" parent="1" source="v9gm9MY6BJGtpiwIjxo0-113" target="v9gm9MY6BJGtpiwIjxo0-121">
          <mxGeometry width="50" height="50" relative="1" as="geometry">
            <mxPoint x="400" y="305" as="sourcePoint" />
            <mxPoint x="405" y="350" as="targetPoint" />
            <Array as="points" />
          </mxGeometry>
        </mxCell>
        <mxCell id="v9gm9MY6BJGtpiwIjxo0-159" value="extends" style="edgeLabel;html=1;align=center;verticalAlign=middle;resizable=0;points=[];" connectable="0" vertex="1" parent="v9gm9MY6BJGtpiwIjxo0-158">
          <mxGeometry x="-0.2" relative="1" as="geometry">
            <mxPoint as="offset" />
          </mxGeometry>
        </mxCell>
        <mxCell id="v9gm9MY6BJGtpiwIjxo0-160" value="&lt;br&gt;&lt;div&gt;Modificar&lt;br&gt;Consultar&lt;/div&gt;" style="ellipse;whiteSpace=wrap;html=1;" vertex="1" parent="1">
          <mxGeometry x="600" y="80" width="140" height="85" as="geometry" />
        </mxCell>
        <mxCell id="v9gm9MY6BJGtpiwIjxo0-161" value="&lt;div&gt;CU07&lt;/div&gt;Gestión voluntariado" style="ellipse;whiteSpace=wrap;html=1;strokeColor=light-dark(#FF0F0F,#FFFFFF);" vertex="1" parent="1">
          <mxGeometry x="430" y="850" width="120" height="80" as="geometry" />
        </mxCell>
        <mxCell id="v9gm9MY6BJGtpiwIjxo0-164" value="&lt;div&gt;CU08&lt;/div&gt;Gestionar donaciones" style="ellipse;whiteSpace=wrap;html=1;strokeColor=light-dark(#FF0000,#FFFFFF);" vertex="1" parent="1">
          <mxGeometry x="530" y="735" width="120" height="80" as="geometry" />
        </mxCell>
        <mxCell id="v9gm9MY6BJGtpiwIjxo0-165" value="Crear&lt;div&gt;Modificar&lt;br&gt;Consultar&lt;/div&gt;&lt;div&gt;deshabilitar&amp;nbsp;&lt;/div&gt;&lt;div&gt;Eliminar&amp;nbsp;&lt;/div&gt;" style="ellipse;whiteSpace=wrap;html=1;direction=west;" vertex="1" parent="1">
          <mxGeometry x="690" y="950" width="140" height="85" as="geometry" />
        </mxCell>
        <mxCell id="Ff2ewmQGDALEUVHV6CEB-1" value="" style="endArrow=classic;html=1;rounded=0;entryX=0.5;entryY=0;entryDx=0;entryDy=0;exitX=0.25;exitY=1;exitDx=0;exitDy=0;exitPerimeter=0;" edge="1" parent="1" source="v9gm9MY6BJGtpiwIjxo0-114" target="v9gm9MY6BJGtpiwIjxo0-161">
          <mxGeometry width="50" height="50" relative="1" as="geometry">
            <mxPoint x="230" y="750" as="sourcePoint" />
            <mxPoint x="288" y="866" as="targetPoint" />
          </mxGeometry>
        </mxCell>
        <mxCell id="Ff2ewmQGDALEUVHV6CEB-2" value="Include" style="edgeLabel;html=1;align=center;verticalAlign=middle;resizable=0;points=[];" connectable="0" vertex="1" parent="Ff2ewmQGDALEUVHV6CEB-1">
          <mxGeometry x="-0.1048" y="-3" relative="1" as="geometry">
            <mxPoint x="-1" as="offset" />
          </mxGeometry>
        </mxCell>
        <mxCell id="Ff2ewmQGDALEUVHV6CEB-3" value="" style="endArrow=classic;html=1;rounded=0;entryX=1;entryY=0.5;entryDx=0;entryDy=0;" edge="1" parent="1" source="v9gm9MY6BJGtpiwIjxo0-161" target="v9gm9MY6BJGtpiwIjxo0-165">
          <mxGeometry width="50" height="50" relative="1" as="geometry">
            <mxPoint x="630" y="960" as="sourcePoint" />
            <mxPoint x="745" y="1002" as="targetPoint" />
            <Array as="points" />
          </mxGeometry>
        </mxCell>
        <mxCell id="Ff2ewmQGDALEUVHV6CEB-4" value="extends" style="edgeLabel;html=1;align=center;verticalAlign=middle;resizable=0;points=[];" connectable="0" vertex="1" parent="Ff2ewmQGDALEUVHV6CEB-3">
          <mxGeometry x="-0.2" relative="1" as="geometry">
            <mxPoint x="-22" as="offset" />
          </mxGeometry>
        </mxCell>
        <mxCell id="h-fuYwtQxV6556k9M94j-1" value="" style="endArrow=classic;html=1;rounded=0;exitX=0.5;exitY=1;exitDx=0;exitDy=0;entryX=0.45;entryY=0;entryDx=0;entryDy=0;entryPerimeter=0;" edge="1" parent="1" source="v9gm9MY6BJGtpiwIjxo0-117" target="v9gm9MY6BJGtpiwIjxo0-141">
          <mxGeometry width="50" height="50" relative="1" as="geometry">
            <mxPoint x="220" y="590" as="sourcePoint" />
            <mxPoint x="298" y="640" as="targetPoint" />
          </mxGeometry>
        </mxCell>
        <mxCell id="h-fuYwtQxV6556k9M94j-2" value="Include" style="edgeLabel;html=1;align=center;verticalAlign=middle;resizable=0;points=[];" connectable="0" vertex="1" parent="h-fuYwtQxV6556k9M94j-1">
          <mxGeometry x="-0.166" y="-5" relative="1" as="geometry">
            <mxPoint x="1" as="offset" />
          </mxGeometry>
        </mxCell>
        <mxCell id="h-fuYwtQxV6556k9M94j-3" value="extends" style="endArrow=block;endSize=16;endFill=0;html=1;rounded=0;entryX=0.5;entryY=0;entryDx=0;entryDy=0;exitX=0.5;exitY=1;exitDx=0;exitDy=0;" edge="1" parent="1" source="v9gm9MY6BJGtpiwIjxo0-141" target="v9gm9MY6BJGtpiwIjxo0-143">
          <mxGeometry width="160" relative="1" as="geometry">
            <mxPoint x="230" y="770" as="sourcePoint" />
            <mxPoint x="309" y="817" as="targetPoint" />
          </mxGeometry>
        </mxCell>
      </root>
    </mxGraphModel>
  </diagram>
  <diagram id="QMB4SfDt6vAQgIlFoHhR" name="Fundacion">
    <mxGraphModel grid="0" page="1" gridSize="10" guides="1" tooltips="1" connect="1" arrows="1" fold="1" pageScale="1" pageWidth="827" pageHeight="1169" math="0" shadow="0">
      <root>
        <mxCell id="0" />
        <mxCell id="1" parent="0" />
        <mxCell id="Zqb1BFpNfFzDoCCHMRRB-1" value="" style="edgeStyle=orthogonalEdgeStyle;rounded=0;orthogonalLoop=1;jettySize=auto;html=1;" edge="1" parent="1" source="Zqb1BFpNfFzDoCCHMRRB-2" target="Zqb1BFpNfFzDoCCHMRRB-5">
          <mxGeometry relative="1" as="geometry" />
        </mxCell>
        <mxCell id="Zqb1BFpNfFzDoCCHMRRB-2" value="Fundacion" style="shape=umlActor;verticalLabelPosition=bottom;verticalAlign=top;html=1;outlineConnect=0;" vertex="1" parent="1">
          <mxGeometry x="440" y="950" width="30" height="60" as="geometry" />
        </mxCell>
        <mxCell id="Zqb1BFpNfFzDoCCHMRRB-4" value="CU09&lt;div&gt;Gestionar Reportes estadísticos&lt;/div&gt;" style="ellipse;whiteSpace=wrap;html=1;strokeColor=light-dark(#FF1919,#FFFFFF);" vertex="1" parent="1">
          <mxGeometry x="745" y="1020" width="140" height="70" as="geometry" />
        </mxCell>
        <mxCell id="Zqb1BFpNfFzDoCCHMRRB-5" value="&lt;div&gt;CU1&lt;/div&gt;Iniciar sesión" style="ellipse;whiteSpace=wrap;html=1;strokeColor=light-dark(#FF0000,#FFFFFF);" vertex="1" parent="1">
          <mxGeometry x="548" y="945" width="140" height="70" as="geometry" />
        </mxCell>
        <mxCell id="Zqb1BFpNfFzDoCCHMRRB-6" value="" style="endArrow=block;endSize=16;endFill=0;html=1;rounded=0;exitX=0.371;exitY=0.003;exitDx=0;exitDy=0;exitPerimeter=0;entryX=0;entryY=0.5;entryDx=0;entryDy=0;" edge="1" parent="1" source="Zqb1BFpNfFzDoCCHMRRB-5" target="Zqb1BFpNfFzDoCCHMRRB-11">
          <mxGeometry x="-1" y="40" width="160" relative="1" as="geometry">
            <mxPoint x="510" y="845" as="sourcePoint" />
            <mxPoint x="690" y="715" as="targetPoint" />
            <Array as="points">
              <mxPoint x="600" y="715" />
            </Array>
            <mxPoint x="30" y="39" as="offset" />
          </mxGeometry>
        </mxCell>
        <mxCell id="Zqb1BFpNfFzDoCCHMRRB-7" value="Include" style="edgeLabel;html=1;align=center;verticalAlign=middle;resizable=0;points=[];" connectable="0" vertex="1" parent="Zqb1BFpNfFzDoCCHMRRB-6">
          <mxGeometry x="-0.11" y="1" relative="1" as="geometry">
            <mxPoint as="offset" />
          </mxGeometry>
        </mxCell>
        <mxCell id="Zqb1BFpNfFzDoCCHMRRB-8" value="Include" style="endArrow=block;endSize=16;endFill=0;html=1;rounded=0;entryX=0.029;entryY=0.357;entryDx=0;entryDy=0;entryPerimeter=0;exitX=1;exitY=0.5;exitDx=0;exitDy=0;" edge="1" parent="1" source="Zqb1BFpNfFzDoCCHMRRB-4" target="Zqb1BFpNfFzDoCCHMRRB-27">
          <mxGeometry width="160" relative="1" as="geometry">
            <mxPoint x="1020" y="980" as="sourcePoint" />
            <mxPoint x="1046.9399999999998" y="1032.97" as="targetPoint" />
          </mxGeometry>
        </mxCell>
        <mxCell id="Zqb1BFpNfFzDoCCHMRRB-10" value="&lt;div&gt;&lt;br&gt;&lt;font style=&quot;vertical-align: inherit;&quot;&gt;Consultar&lt;/font&gt;&lt;/div&gt;" style="ellipse;whiteSpace=wrap;html=1;" vertex="1" parent="1">
          <mxGeometry x="1057" y="1285" width="120" height="80" as="geometry" />
        </mxCell>
        <mxCell id="Zqb1BFpNfFzDoCCHMRRB-11" value="&lt;div&gt;CU03&lt;/div&gt;Gestionar perfil&lt;div&gt;fundación&amp;nbsp;&lt;/div&gt;" style="ellipse;whiteSpace=wrap;html=1;strokeColor=light-dark(#FF0F0F,#FFFFFF);" vertex="1" parent="1">
          <mxGeometry x="730" y="670" width="120" height="80" as="geometry" />
        </mxCell>
        <mxCell id="Zqb1BFpNfFzDoCCHMRRB-12" value="Crear&lt;div&gt;Consultar&lt;/div&gt;" style="ellipse;whiteSpace=wrap;html=1;" vertex="1" parent="1">
          <mxGeometry x="920" y="1115" width="140" height="85" as="geometry" />
        </mxCell>
        <mxCell id="Zqb1BFpNfFzDoCCHMRRB-13" value="CU04&lt;div&gt;Gestionar Rescates&lt;/div&gt;" style="ellipse;whiteSpace=wrap;html=1;strokeColor=light-dark(#FF0000,#FFFFFF);" vertex="1" parent="1">
          <mxGeometry x="800" y="910" width="140" height="70" as="geometry" />
        </mxCell>
        <mxCell id="Zqb1BFpNfFzDoCCHMRRB-14" value="" style="endArrow=classic;html=1;rounded=0;exitX=0.5;exitY=1;exitDx=0;exitDy=0;entryX=0.5;entryY=0;entryDx=0;entryDy=0;" edge="1" parent="1" source="Zqb1BFpNfFzDoCCHMRRB-27" target="Zqb1BFpNfFzDoCCHMRRB-29">
          <mxGeometry width="50" height="50" relative="1" as="geometry">
            <mxPoint x="989.9974746830585" y="1094.9987373415292" as="sourcePoint" />
            <mxPoint x="1310" y="1225" as="targetPoint" />
            <Array as="points" />
          </mxGeometry>
        </mxCell>
        <mxCell id="Zqb1BFpNfFzDoCCHMRRB-15" value="extends" style="edgeLabel;html=1;align=center;verticalAlign=middle;resizable=0;points=[];" connectable="0" vertex="1" parent="Zqb1BFpNfFzDoCCHMRRB-14">
          <mxGeometry x="-0.2" relative="1" as="geometry">
            <mxPoint as="offset" />
          </mxGeometry>
        </mxCell>
        <mxCell id="Zqb1BFpNfFzDoCCHMRRB-16" value="&lt;div&gt;CU05&lt;/div&gt;Gestionar Adopciones" style="ellipse;whiteSpace=wrap;html=1;strokeColor=light-dark(#FF0505,#FFFFFF);" vertex="1" parent="1">
          <mxGeometry x="1047" y="900" width="120" height="80" as="geometry" />
        </mxCell>
        <mxCell id="Zqb1BFpNfFzDoCCHMRRB-18" value="Crear&lt;div&gt;Modificar&lt;br&gt;Consultar&lt;/div&gt;&lt;div&gt;deshabilitar&amp;nbsp;&lt;/div&gt;" style="ellipse;whiteSpace=wrap;html=1;" vertex="1" parent="1">
          <mxGeometry x="1080" y="780" width="140" height="85" as="geometry" />
        </mxCell>
        <mxCell id="Zqb1BFpNfFzDoCCHMRRB-19" value="" style="endArrow=classic;html=1;rounded=0;exitX=0.5;exitY=0;exitDx=0;exitDy=0;entryX=0.5;entryY=1;entryDx=0;entryDy=0;" edge="1" parent="1" source="Zqb1BFpNfFzDoCCHMRRB-16" target="Zqb1BFpNfFzDoCCHMRRB-18">
          <mxGeometry width="50" height="50" relative="1" as="geometry">
            <mxPoint x="1756.5" y="1015" as="sourcePoint" />
            <mxPoint x="1765" y="955" as="targetPoint" />
            <Array as="points" />
          </mxGeometry>
        </mxCell>
        <mxCell id="Zqb1BFpNfFzDoCCHMRRB-20" value="extends" style="edgeLabel;html=1;align=center;verticalAlign=middle;resizable=0;points=[];" connectable="0" vertex="1" parent="Zqb1BFpNfFzDoCCHMRRB-19">
          <mxGeometry x="-0.2" relative="1" as="geometry">
            <mxPoint as="offset" />
          </mxGeometry>
        </mxCell>
        <mxCell id="Zqb1BFpNfFzDoCCHMRRB-21" value="Include" style="endArrow=block;endSize=16;endFill=0;html=1;rounded=0;exitX=1;exitY=0.5;exitDx=0;exitDy=0;" edge="1" parent="1" source="Zqb1BFpNfFzDoCCHMRRB-13" target="Zqb1BFpNfFzDoCCHMRRB-16">
          <mxGeometry width="160" relative="1" as="geometry">
            <mxPoint x="1120" y="1005" as="sourcePoint" />
            <mxPoint x="1420" y="1045" as="targetPoint" />
          </mxGeometry>
        </mxCell>
        <mxCell id="Zqb1BFpNfFzDoCCHMRRB-22" value="&lt;div&gt;&lt;font style=&quot;vertical-align: inherit;&quot;&gt;&lt;font style=&quot;vertical-align: inherit;&quot;&gt;Modificar &lt;/font&gt;&lt;/font&gt;&lt;br&gt;&lt;font style=&quot;vertical-align: inherit;&quot;&gt;&lt;font style=&quot;vertical-align: inherit;&quot;&gt;Consultar&lt;/font&gt;&lt;/font&gt;&lt;/div&gt;&lt;div&gt;&lt;font style=&quot;vertical-align: inherit;&quot;&gt;&lt;font style=&quot;vertical-align: inherit;&quot;&gt;deshabilitar&amp;nbsp;&lt;/font&gt;&lt;/font&gt;&lt;/div&gt;" style="ellipse;whiteSpace=wrap;html=1;" vertex="1" parent="1">
          <mxGeometry x="900" y="780" width="140" height="85" as="geometry" />
        </mxCell>
        <mxCell id="Zqb1BFpNfFzDoCCHMRRB-23" value="" style="endArrow=classic;html=1;rounded=0;entryX=0.457;entryY=1;entryDx=0;entryDy=0;entryPerimeter=0;exitX=0.5;exitY=0;exitDx=0;exitDy=0;" edge="1" parent="1" source="Zqb1BFpNfFzDoCCHMRRB-13" target="Zqb1BFpNfFzDoCCHMRRB-22">
          <mxGeometry width="50" height="50" relative="1" as="geometry">
            <mxPoint x="1170" y="825" as="sourcePoint" />
            <mxPoint x="1488" y="1153" as="targetPoint" />
            <Array as="points" />
          </mxGeometry>
        </mxCell>
        <mxCell id="Zqb1BFpNfFzDoCCHMRRB-24" value="extends" style="edgeLabel;html=1;align=center;verticalAlign=middle;resizable=0;points=[];" connectable="0" vertex="1" parent="Zqb1BFpNfFzDoCCHMRRB-23">
          <mxGeometry x="-0.2" relative="1" as="geometry">
            <mxPoint as="offset" />
          </mxGeometry>
        </mxCell>
        <mxCell id="Zqb1BFpNfFzDoCCHMRRB-27" value="CU06&lt;div&gt;Gestionar&amp;nbsp; campañas y eventos&lt;/div&gt;" style="ellipse;whiteSpace=wrap;html=1;strokeColor=light-dark(#FF3B00,#FFFFFF);" vertex="1" parent="1">
          <mxGeometry x="1020" y="1030" width="140" height="70" as="geometry" />
        </mxCell>
        <mxCell id="Zqb1BFpNfFzDoCCHMRRB-28" value="extends" style="endArrow=block;endSize=16;endFill=0;html=1;rounded=0;entryX=0;entryY=0;entryDx=0;entryDy=0;" edge="1" parent="1" source="Zqb1BFpNfFzDoCCHMRRB-4" target="Zqb1BFpNfFzDoCCHMRRB-12">
          <mxGeometry width="160" relative="1" as="geometry">
            <mxPoint x="867" y="1115" as="sourcePoint" />
            <mxPoint x="1047" y="1235" as="targetPoint" />
          </mxGeometry>
        </mxCell>
        <mxCell id="Zqb1BFpNfFzDoCCHMRRB-29" value="&lt;font style=&quot;vertical-align: inherit;&quot;&gt;Crear&lt;/font&gt;&lt;div&gt;&lt;font style=&quot;vertical-align: inherit;&quot;&gt;Modificar&lt;/font&gt;&lt;br&gt;&lt;font style=&quot;vertical-align: inherit;&quot;&gt;Consultar&lt;/font&gt;&lt;/div&gt;&lt;div&gt;&lt;font style=&quot;vertical-align: inherit;&quot;&gt;deshabilitar&amp;nbsp;&lt;/font&gt;&lt;/div&gt;" style="ellipse;whiteSpace=wrap;html=1;" vertex="1" parent="1">
          <mxGeometry x="1047" y="1185" width="140" height="70" as="geometry" />
        </mxCell>
        <mxCell id="Zqb1BFpNfFzDoCCHMRRB-30" value="" style="endArrow=classic;html=1;rounded=0;exitX=0.5;exitY=0;exitDx=0;exitDy=0;entryX=0.5;entryY=1;entryDx=0;entryDy=0;" edge="1" parent="1" source="Zqb1BFpNfFzDoCCHMRRB-11" target="Zqb1BFpNfFzDoCCHMRRB-42">
          <mxGeometry width="50" height="50" relative="1" as="geometry">
            <mxPoint x="930" y="995" as="sourcePoint" />
            <mxPoint x="960" y="795" as="targetPoint" />
            <Array as="points" />
          </mxGeometry>
        </mxCell>
        <mxCell id="Zqb1BFpNfFzDoCCHMRRB-31" value="extends" style="edgeLabel;html=1;align=center;verticalAlign=middle;resizable=0;points=[];" connectable="0" vertex="1" parent="Zqb1BFpNfFzDoCCHMRRB-30">
          <mxGeometry x="-0.2882" y="1" relative="1" as="geometry">
            <mxPoint as="offset" />
          </mxGeometry>
        </mxCell>
        <mxCell id="Zqb1BFpNfFzDoCCHMRRB-32" value="" style="endArrow=classic;html=1;rounded=0;exitX=0.989;exitY=0.733;exitDx=0;exitDy=0;exitPerimeter=0;" edge="1" parent="1" source="Zqb1BFpNfFzDoCCHMRRB-44" target="Zqb1BFpNfFzDoCCHMRRB-10">
          <mxGeometry width="50" height="50" relative="1" as="geometry">
            <mxPoint x="910.8800093150357" y="1284.2789255904984" as="sourcePoint" />
            <mxPoint x="900" y="1370" as="targetPoint" />
            <Array as="points" />
          </mxGeometry>
        </mxCell>
        <mxCell id="Zqb1BFpNfFzDoCCHMRRB-33" value="extends" style="edgeLabel;html=1;align=center;verticalAlign=middle;resizable=0;points=[];" connectable="0" vertex="1" parent="Zqb1BFpNfFzDoCCHMRRB-32">
          <mxGeometry x="-0.2" relative="1" as="geometry">
            <mxPoint x="-22" as="offset" />
          </mxGeometry>
        </mxCell>
        <mxCell id="Zqb1BFpNfFzDoCCHMRRB-34" value="" style="endArrow=classic;html=1;rounded=0;exitX=1;exitY=0;exitDx=0;exitDy=0;" edge="1" parent="1" source="Zqb1BFpNfFzDoCCHMRRB-5" target="Zqb1BFpNfFzDoCCHMRRB-13">
          <mxGeometry width="50" height="50" relative="1" as="geometry">
            <mxPoint x="690" y="1095" as="sourcePoint" />
            <mxPoint x="780" y="950" as="targetPoint" />
          </mxGeometry>
        </mxCell>
        <mxCell id="Zqb1BFpNfFzDoCCHMRRB-35" value="Include" style="edgeLabel;html=1;align=center;verticalAlign=middle;resizable=0;points=[];" connectable="0" vertex="1" parent="Zqb1BFpNfFzDoCCHMRRB-34">
          <mxGeometry x="-0.2066" y="3" relative="1" as="geometry">
            <mxPoint as="offset" />
          </mxGeometry>
        </mxCell>
        <mxCell id="Zqb1BFpNfFzDoCCHMRRB-36" value="" style="endArrow=classic;html=1;rounded=0;exitX=1;exitY=1;exitDx=0;exitDy=0;entryX=0;entryY=0.5;entryDx=0;entryDy=0;" edge="1" parent="1" source="Zqb1BFpNfFzDoCCHMRRB-5" target="Zqb1BFpNfFzDoCCHMRRB-4">
          <mxGeometry width="50" height="50" relative="1" as="geometry">
            <mxPoint x="880" y="1015" as="sourcePoint" />
            <mxPoint x="770" y="1020" as="targetPoint" />
          </mxGeometry>
        </mxCell>
        <mxCell id="Zqb1BFpNfFzDoCCHMRRB-37" value="Include" style="edgeLabel;html=1;align=center;verticalAlign=middle;resizable=0;points=[];" connectable="0" vertex="1" parent="Zqb1BFpNfFzDoCCHMRRB-36">
          <mxGeometry x="-0.166" y="-5" relative="1" as="geometry">
            <mxPoint x="1" as="offset" />
          </mxGeometry>
        </mxCell>
        <mxCell id="Zqb1BFpNfFzDoCCHMRRB-38" value="" style="endArrow=classic;html=1;rounded=0;entryX=0.5;entryY=0;entryDx=0;entryDy=0;" edge="1" parent="1" source="Zqb1BFpNfFzDoCCHMRRB-4" target="Zqb1BFpNfFzDoCCHMRRB-44">
          <mxGeometry width="50" height="50" relative="1" as="geometry">
            <mxPoint x="660" y="1155" as="sourcePoint" />
            <mxPoint x="810" y="1255" as="targetPoint" />
          </mxGeometry>
        </mxCell>
        <mxCell id="Zqb1BFpNfFzDoCCHMRRB-39" value="Include" style="edgeLabel;html=1;align=center;verticalAlign=middle;resizable=0;points=[];" connectable="0" vertex="1" parent="Zqb1BFpNfFzDoCCHMRRB-38">
          <mxGeometry x="-0.1048" y="-3" relative="1" as="geometry">
            <mxPoint x="-1" as="offset" />
          </mxGeometry>
        </mxCell>
        <mxCell id="Zqb1BFpNfFzDoCCHMRRB-42" value="&lt;br&gt;&lt;div&gt;Modificar&lt;br&gt;Consultar&lt;/div&gt;" style="ellipse;whiteSpace=wrap;html=1;" vertex="1" parent="1">
          <mxGeometry x="720" y="530" width="140" height="85" as="geometry" />
        </mxCell>
        <mxCell id="Zqb1BFpNfFzDoCCHMRRB-43" value="&lt;div&gt;CU07&lt;/div&gt;Gestión voluntariado" style="ellipse;whiteSpace=wrap;html=1;strokeColor=light-dark(#FF0F0F,#FFFFFF);" vertex="1" parent="1">
          <mxGeometry x="730" y="1320" width="120" height="80" as="geometry" />
        </mxCell>
        <mxCell id="Zqb1BFpNfFzDoCCHMRRB-44" value="&lt;div&gt;CU08&lt;/div&gt;Gestionar donaciones" style="ellipse;whiteSpace=wrap;html=1;strokeColor=light-dark(#FF0000,#FFFFFF);" vertex="1" parent="1">
          <mxGeometry x="830" y="1205" width="120" height="80" as="geometry" />
        </mxCell>
        <mxCell id="Zqb1BFpNfFzDoCCHMRRB-45" value="&lt;br&gt;&lt;div&gt;Consultar&lt;/div&gt;&lt;div&gt;deshabilitar&amp;nbsp;&lt;/div&gt;" style="ellipse;whiteSpace=wrap;html=1;direction=west;" vertex="1" parent="1">
          <mxGeometry x="990" y="1420" width="140" height="85" as="geometry" />
        </mxCell>
        <mxCell id="Zqb1BFpNfFzDoCCHMRRB-46" value="" style="endArrow=classic;html=1;rounded=0;entryX=0.5;entryY=0;entryDx=0;entryDy=0;exitX=0.25;exitY=1;exitDx=0;exitDy=0;exitPerimeter=0;" edge="1" parent="1" source="Zqb1BFpNfFzDoCCHMRRB-4" target="Zqb1BFpNfFzDoCCHMRRB-43">
          <mxGeometry width="50" height="50" relative="1" as="geometry">
            <mxPoint x="530" y="1220" as="sourcePoint" />
            <mxPoint x="588" y="1336" as="targetPoint" />
          </mxGeometry>
        </mxCell>
        <mxCell id="Zqb1BFpNfFzDoCCHMRRB-47" value="Include" style="edgeLabel;html=1;align=center;verticalAlign=middle;resizable=0;points=[];" connectable="0" vertex="1" parent="Zqb1BFpNfFzDoCCHMRRB-46">
          <mxGeometry x="-0.1048" y="-3" relative="1" as="geometry">
            <mxPoint x="-1" as="offset" />
          </mxGeometry>
        </mxCell>
        <mxCell id="Zqb1BFpNfFzDoCCHMRRB-48" value="" style="endArrow=classic;html=1;rounded=0;entryX=1;entryY=0.5;entryDx=0;entryDy=0;" edge="1" parent="1" source="Zqb1BFpNfFzDoCCHMRRB-43" target="Zqb1BFpNfFzDoCCHMRRB-45">
          <mxGeometry width="50" height="50" relative="1" as="geometry">
            <mxPoint x="930" y="1430" as="sourcePoint" />
            <mxPoint x="1045" y="1472" as="targetPoint" />
            <Array as="points" />
          </mxGeometry>
        </mxCell>
        <mxCell id="Zqb1BFpNfFzDoCCHMRRB-49" value="extends" style="edgeLabel;html=1;align=center;verticalAlign=middle;resizable=0;points=[];" connectable="0" vertex="1" parent="Zqb1BFpNfFzDoCCHMRRB-48">
          <mxGeometry x="-0.2" relative="1" as="geometry">
            <mxPoint x="-22" as="offset" />
          </mxGeometry>
        </mxCell>
      </root>
    </mxGraphModel>
  </diagram>
  <diagram id="8egu74ZvlNo6kBmzweNV" name="Voluntarios">
    <mxGraphModel grid="0" page="1" gridSize="10" guides="1" tooltips="1" connect="1" arrows="1" fold="1" pageScale="1" pageWidth="827" pageHeight="1169" math="0" shadow="0">
      <root>
        <mxCell id="0" />
        <mxCell id="1" parent="0" />
        <mxCell id="ZQ1rwN9ObXBHgHMu5UMl-1" value="" style="edgeStyle=orthogonalEdgeStyle;rounded=0;orthogonalLoop=1;jettySize=auto;html=1;" edge="1" parent="1" source="ZQ1rwN9ObXBHgHMu5UMl-2" target="ZQ1rwN9ObXBHgHMu5UMl-4">
          <mxGeometry relative="1" as="geometry" />
        </mxCell>
        <mxCell id="ZQ1rwN9ObXBHgHMu5UMl-2" value="Voluntarios" style="shape=umlActor;verticalLabelPosition=bottom;verticalAlign=top;html=1;outlineConnect=0;" vertex="1" parent="1">
          <mxGeometry x="340" y="570" width="30" height="60" as="geometry" />
        </mxCell>
        <mxCell id="ZQ1rwN9ObXBHgHMu5UMl-4" value="&lt;div&gt;CU1&lt;/div&gt;Iniciar sesión" style="ellipse;whiteSpace=wrap;html=1;strokeColor=light-dark(#FF0000,#FFFFFF);" vertex="1" parent="1">
          <mxGeometry x="448" y="565" width="140" height="70" as="geometry" />
        </mxCell>
        <mxCell id="ZQ1rwN9ObXBHgHMu5UMl-5" value="" style="endArrow=block;endSize=16;endFill=0;html=1;rounded=0;exitX=0.371;exitY=0.003;exitDx=0;exitDy=0;exitPerimeter=0;entryX=0;entryY=0.5;entryDx=0;entryDy=0;" edge="1" parent="1" source="ZQ1rwN9ObXBHgHMu5UMl-4" target="ZQ1rwN9ObXBHgHMu5UMl-9">
          <mxGeometry x="-1" y="40" width="160" relative="1" as="geometry">
            <mxPoint x="410" y="465" as="sourcePoint" />
            <mxPoint x="590" y="335" as="targetPoint" />
            <Array as="points">
              <mxPoint x="500" y="335" />
            </Array>
            <mxPoint x="30" y="39" as="offset" />
          </mxGeometry>
        </mxCell>
        <mxCell id="ZQ1rwN9ObXBHgHMu5UMl-6" value="Include" style="edgeLabel;html=1;align=center;verticalAlign=middle;resizable=0;points=[];" connectable="0" vertex="1" parent="ZQ1rwN9ObXBHgHMu5UMl-5">
          <mxGeometry x="-0.11" y="1" relative="1" as="geometry">
            <mxPoint as="offset" />
          </mxGeometry>
        </mxCell>
        <mxCell id="ZQ1rwN9ObXBHgHMu5UMl-7" value="Include" style="endArrow=block;endSize=16;endFill=0;html=1;rounded=0;entryX=0.029;entryY=0.357;entryDx=0;entryDy=0;entryPerimeter=0;exitX=1;exitY=0.5;exitDx=0;exitDy=0;" edge="1" parent="1" source="ZQ1rwN9ObXBHgHMu5UMl-4" target="ZQ1rwN9ObXBHgHMu5UMl-22">
          <mxGeometry width="160" relative="1" as="geometry">
            <mxPoint x="785" y="675" as="sourcePoint" />
            <mxPoint x="946.9399999999998" y="652.97" as="targetPoint" />
          </mxGeometry>
        </mxCell>
        <mxCell id="ZQ1rwN9ObXBHgHMu5UMl-9" value="&lt;div&gt;CU03&lt;/div&gt;Gestionar perfil" style="ellipse;whiteSpace=wrap;html=1;strokeColor=light-dark(#FF0F0F,#FFFFFF);" vertex="1" parent="1">
          <mxGeometry x="630" y="290" width="120" height="80" as="geometry" />
        </mxCell>
        <mxCell id="ZQ1rwN9ObXBHgHMu5UMl-12" value="" style="endArrow=classic;html=1;rounded=0;exitX=1;exitY=0.5;exitDx=0;exitDy=0;entryX=0;entryY=0.5;entryDx=0;entryDy=0;" edge="1" parent="1" source="ZQ1rwN9ObXBHgHMu5UMl-22" target="ZQ1rwN9ObXBHgHMu5UMl-24">
          <mxGeometry width="50" height="50" relative="1" as="geometry">
            <mxPoint x="889.9974746830585" y="714.9987373415292" as="sourcePoint" />
            <mxPoint x="1210" y="845" as="targetPoint" />
            <Array as="points" />
          </mxGeometry>
        </mxCell>
        <mxCell id="ZQ1rwN9ObXBHgHMu5UMl-13" value="extends" style="edgeLabel;html=1;align=center;verticalAlign=middle;resizable=0;points=[];" connectable="0" vertex="1" parent="ZQ1rwN9ObXBHgHMu5UMl-12">
          <mxGeometry x="-0.2" relative="1" as="geometry">
            <mxPoint as="offset" />
          </mxGeometry>
        </mxCell>
        <mxCell id="ZQ1rwN9ObXBHgHMu5UMl-14" value="&lt;div&gt;CU05&lt;/div&gt;Gestionar Adopciones" style="ellipse;whiteSpace=wrap;html=1;strokeColor=light-dark(#FF0505,#FFFFFF);" vertex="1" parent="1">
          <mxGeometry x="690" y="520" width="120" height="80" as="geometry" />
        </mxCell>
        <mxCell id="ZQ1rwN9ObXBHgHMu5UMl-15" value="&lt;br&gt;&lt;div&gt;Consultar&lt;/div&gt;" style="ellipse;whiteSpace=wrap;html=1;" vertex="1" parent="1">
          <mxGeometry x="760" y="380" width="140" height="85" as="geometry" />
        </mxCell>
        <mxCell id="ZQ1rwN9ObXBHgHMu5UMl-16" value="" style="endArrow=classic;html=1;rounded=0;exitX=0.5;exitY=0;exitDx=0;exitDy=0;entryX=0.5;entryY=1;entryDx=0;entryDy=0;" edge="1" parent="1" source="ZQ1rwN9ObXBHgHMu5UMl-14" target="ZQ1rwN9ObXBHgHMu5UMl-15">
          <mxGeometry width="50" height="50" relative="1" as="geometry">
            <mxPoint x="1656.5" y="635" as="sourcePoint" />
            <mxPoint x="1665" y="575" as="targetPoint" />
            <Array as="points" />
          </mxGeometry>
        </mxCell>
        <mxCell id="ZQ1rwN9ObXBHgHMu5UMl-17" value="extends" style="edgeLabel;html=1;align=center;verticalAlign=middle;resizable=0;points=[];" connectable="0" vertex="1" parent="ZQ1rwN9ObXBHgHMu5UMl-16">
          <mxGeometry x="-0.2" relative="1" as="geometry">
            <mxPoint as="offset" />
          </mxGeometry>
        </mxCell>
        <mxCell id="ZQ1rwN9ObXBHgHMu5UMl-22" value="CU06&lt;div&gt;Gestionar&amp;nbsp; campañas y eventos&lt;/div&gt;" style="ellipse;whiteSpace=wrap;html=1;strokeColor=light-dark(#FF3B00,#FFFFFF);" vertex="1" parent="1">
          <mxGeometry x="670" y="650" width="140" height="70" as="geometry" />
        </mxCell>
        <mxCell id="ZQ1rwN9ObXBHgHMu5UMl-24" value="&lt;br&gt;&lt;div&gt;&lt;font style=&quot;vertical-align: inherit;&quot;&gt;Consultar&lt;/font&gt;&lt;/div&gt;" style="ellipse;whiteSpace=wrap;html=1;" vertex="1" parent="1">
          <mxGeometry x="950" y="635" width="140" height="70" as="geometry" />
        </mxCell>
        <mxCell id="ZQ1rwN9ObXBHgHMu5UMl-25" value="" style="endArrow=classic;html=1;rounded=0;exitX=0.5;exitY=0;exitDx=0;exitDy=0;entryX=0.5;entryY=1;entryDx=0;entryDy=0;" edge="1" parent="1" source="ZQ1rwN9ObXBHgHMu5UMl-9" target="ZQ1rwN9ObXBHgHMu5UMl-35">
          <mxGeometry width="50" height="50" relative="1" as="geometry">
            <mxPoint x="830" y="615" as="sourcePoint" />
            <mxPoint x="860" y="415" as="targetPoint" />
            <Array as="points" />
          </mxGeometry>
        </mxCell>
        <mxCell id="ZQ1rwN9ObXBHgHMu5UMl-26" value="extends" style="edgeLabel;html=1;align=center;verticalAlign=middle;resizable=0;points=[];" connectable="0" vertex="1" parent="ZQ1rwN9ObXBHgHMu5UMl-25">
          <mxGeometry x="-0.2882" y="1" relative="1" as="geometry">
            <mxPoint as="offset" />
          </mxGeometry>
        </mxCell>
        <mxCell id="ZQ1rwN9ObXBHgHMu5UMl-29" value="" style="endArrow=classic;html=1;rounded=0;exitX=1;exitY=0;exitDx=0;exitDy=0;entryX=0;entryY=0.5;entryDx=0;entryDy=0;" edge="1" parent="1" source="ZQ1rwN9ObXBHgHMu5UMl-4" target="ZQ1rwN9ObXBHgHMu5UMl-14">
          <mxGeometry width="50" height="50" relative="1" as="geometry">
            <mxPoint x="590" y="715" as="sourcePoint" />
            <mxPoint x="700.3406014759155" y="568.4484850754498" as="targetPoint" />
          </mxGeometry>
        </mxCell>
        <mxCell id="ZQ1rwN9ObXBHgHMu5UMl-30" value="Include" style="edgeLabel;html=1;align=center;verticalAlign=middle;resizable=0;points=[];" connectable="0" vertex="1" parent="ZQ1rwN9ObXBHgHMu5UMl-29">
          <mxGeometry x="-0.2066" y="3" relative="1" as="geometry">
            <mxPoint as="offset" />
          </mxGeometry>
        </mxCell>
        <mxCell id="ZQ1rwN9ObXBHgHMu5UMl-35" value="&lt;br&gt;&lt;div&gt;Modificar&lt;br&gt;Consultar&lt;/div&gt;&lt;div&gt;deshabilitar&lt;/div&gt;&lt;div&gt;eliminar&lt;/div&gt;" style="ellipse;whiteSpace=wrap;html=1;" vertex="1" parent="1">
          <mxGeometry x="620" y="150" width="140" height="85" as="geometry" />
        </mxCell>
        <mxCell id="ZQ1rwN9ObXBHgHMu5UMl-36" value="&lt;div&gt;CU07&lt;/div&gt;Gestión voluntariado" style="ellipse;whiteSpace=wrap;html=1;strokeColor=light-dark(#FF0F0F,#FFFFFF);" vertex="1" parent="1">
          <mxGeometry x="510" y="780" width="120" height="80" as="geometry" />
        </mxCell>
        <mxCell id="ZQ1rwN9ObXBHgHMu5UMl-38" value="&lt;br&gt;&lt;div&gt;Consultar&lt;/div&gt;" style="ellipse;whiteSpace=wrap;html=1;direction=west;" vertex="1" parent="1">
          <mxGeometry x="610" y="890" width="140" height="85" as="geometry" />
        </mxCell>
        <mxCell id="ZQ1rwN9ObXBHgHMu5UMl-39" value="" style="endArrow=classic;html=1;rounded=0;entryX=0.5;entryY=0;entryDx=0;entryDy=0;exitX=1;exitY=1;exitDx=0;exitDy=0;" edge="1" parent="1" source="ZQ1rwN9ObXBHgHMu5UMl-4" target="ZQ1rwN9ObXBHgHMu5UMl-36">
          <mxGeometry width="50" height="50" relative="1" as="geometry">
            <mxPoint x="680" y="710" as="sourcePoint" />
            <mxPoint x="488" y="956" as="targetPoint" />
          </mxGeometry>
        </mxCell>
        <mxCell id="ZQ1rwN9ObXBHgHMu5UMl-40" value="Include" style="edgeLabel;html=1;align=center;verticalAlign=middle;resizable=0;points=[];" connectable="0" vertex="1" parent="ZQ1rwN9ObXBHgHMu5UMl-39">
          <mxGeometry x="-0.1048" y="-3" relative="1" as="geometry">
            <mxPoint x="-1" as="offset" />
          </mxGeometry>
        </mxCell>
        <mxCell id="ZQ1rwN9ObXBHgHMu5UMl-41" value="" style="endArrow=classic;html=1;rounded=0;entryX=1;entryY=0.5;entryDx=0;entryDy=0;" edge="1" parent="1" source="ZQ1rwN9ObXBHgHMu5UMl-36" target="ZQ1rwN9ObXBHgHMu5UMl-38">
          <mxGeometry width="50" height="50" relative="1" as="geometry">
            <mxPoint x="830" y="1050" as="sourcePoint" />
            <mxPoint x="945" y="1092" as="targetPoint" />
            <Array as="points" />
          </mxGeometry>
        </mxCell>
        <mxCell id="ZQ1rwN9ObXBHgHMu5UMl-42" value="extends" style="edgeLabel;html=1;align=center;verticalAlign=middle;resizable=0;points=[];" connectable="0" vertex="1" parent="ZQ1rwN9ObXBHgHMu5UMl-41">
          <mxGeometry x="-0.2" relative="1" as="geometry">
            <mxPoint x="-22" as="offset" />
          </mxGeometry>
        </mxCell>
      </root>
    </mxGraphModel>
  </diagram>
  <diagram id="sLTUztXJGOFEGN6Cpi0f" name="Donantes">
    <mxGraphModel grid="0" page="1" gridSize="10" guides="1" tooltips="1" connect="1" arrows="1" fold="1" pageScale="1" pageWidth="827" pageHeight="1169" math="0" shadow="0">
      <root>
        <mxCell id="0" />
        <mxCell id="1" parent="0" />
        <mxCell id="GM1cFpTCcB9UKRT-N5jJ-1" value="" style="edgeStyle=orthogonalEdgeStyle;rounded=0;orthogonalLoop=1;jettySize=auto;html=1;" edge="1" parent="1" source="GM1cFpTCcB9UKRT-N5jJ-2" target="GM1cFpTCcB9UKRT-N5jJ-3">
          <mxGeometry relative="1" as="geometry" />
        </mxCell>
        <mxCell id="GM1cFpTCcB9UKRT-N5jJ-2" value="Donantes" style="shape=umlActor;verticalLabelPosition=bottom;verticalAlign=top;html=1;outlineConnect=0;" vertex="1" parent="1">
          <mxGeometry x="480" y="880" width="30" height="60" as="geometry" />
        </mxCell>
        <mxCell id="GM1cFpTCcB9UKRT-N5jJ-3" value="&lt;div&gt;CU1&lt;/div&gt;Iniciar sesión" style="ellipse;whiteSpace=wrap;html=1;strokeColor=light-dark(#FF0000,#FFFFFF);" vertex="1" parent="1">
          <mxGeometry x="588" y="875" width="140" height="70" as="geometry" />
        </mxCell>
        <mxCell id="GM1cFpTCcB9UKRT-N5jJ-4" value="" style="endArrow=block;endSize=16;endFill=0;html=1;rounded=0;exitX=0.371;exitY=0.003;exitDx=0;exitDy=0;exitPerimeter=0;entryX=0;entryY=0.5;entryDx=0;entryDy=0;" edge="1" parent="1" source="GM1cFpTCcB9UKRT-N5jJ-3" target="GM1cFpTCcB9UKRT-N5jJ-7">
          <mxGeometry x="-1" y="40" width="160" relative="1" as="geometry">
            <mxPoint x="550" y="775" as="sourcePoint" />
            <mxPoint x="730" y="645" as="targetPoint" />
            <Array as="points">
              <mxPoint x="640" y="645" />
            </Array>
            <mxPoint x="30" y="39" as="offset" />
          </mxGeometry>
        </mxCell>
        <mxCell id="GM1cFpTCcB9UKRT-N5jJ-5" value="Include" style="edgeLabel;html=1;align=center;verticalAlign=middle;resizable=0;points=[];" connectable="0" vertex="1" parent="GM1cFpTCcB9UKRT-N5jJ-4">
          <mxGeometry x="-0.11" y="1" relative="1" as="geometry">
            <mxPoint as="offset" />
          </mxGeometry>
        </mxCell>
        <mxCell id="GM1cFpTCcB9UKRT-N5jJ-6" value="Include" style="endArrow=block;endSize=16;endFill=0;html=1;rounded=0;entryX=0.029;entryY=0.357;entryDx=0;entryDy=0;entryPerimeter=0;exitX=1;exitY=0.5;exitDx=0;exitDy=0;" edge="1" parent="1" source="GM1cFpTCcB9UKRT-N5jJ-3" target="GM1cFpTCcB9UKRT-N5jJ-14">
          <mxGeometry width="160" relative="1" as="geometry">
            <mxPoint x="925" y="985" as="sourcePoint" />
            <mxPoint x="1086.9399999999998" y="962.97" as="targetPoint" />
          </mxGeometry>
        </mxCell>
        <mxCell id="GM1cFpTCcB9UKRT-N5jJ-7" value="&lt;div&gt;CU03&lt;/div&gt;Gestionar perfil" style="ellipse;whiteSpace=wrap;html=1;strokeColor=light-dark(#FF0F0F,#FFFFFF);" vertex="1" parent="1">
          <mxGeometry x="770" y="600" width="120" height="80" as="geometry" />
        </mxCell>
        <mxCell id="GM1cFpTCcB9UKRT-N5jJ-8" value="" style="endArrow=classic;html=1;rounded=0;exitX=1;exitY=0.5;exitDx=0;exitDy=0;entryX=0;entryY=0.5;entryDx=0;entryDy=0;" edge="1" parent="1" source="GM1cFpTCcB9UKRT-N5jJ-14" target="GM1cFpTCcB9UKRT-N5jJ-15">
          <mxGeometry width="50" height="50" relative="1" as="geometry">
            <mxPoint x="1029.9974746830585" y="1024.9987373415292" as="sourcePoint" />
            <mxPoint x="1350" y="1155" as="targetPoint" />
            <Array as="points" />
          </mxGeometry>
        </mxCell>
        <mxCell id="GM1cFpTCcB9UKRT-N5jJ-9" value="extends" style="edgeLabel;html=1;align=center;verticalAlign=middle;resizable=0;points=[];" connectable="0" vertex="1" parent="GM1cFpTCcB9UKRT-N5jJ-8">
          <mxGeometry x="-0.2" relative="1" as="geometry">
            <mxPoint as="offset" />
          </mxGeometry>
        </mxCell>
        <mxCell id="GM1cFpTCcB9UKRT-N5jJ-10" value="&lt;div&gt;CU05&lt;/div&gt;Gestionar Adopciones" style="ellipse;whiteSpace=wrap;html=1;strokeColor=light-dark(#FF0505,#FFFFFF);" vertex="1" parent="1">
          <mxGeometry x="830" y="830" width="120" height="80" as="geometry" />
        </mxCell>
        <mxCell id="GM1cFpTCcB9UKRT-N5jJ-11" value="&lt;br&gt;&lt;div&gt;Consultar&lt;/div&gt;" style="ellipse;whiteSpace=wrap;html=1;" vertex="1" parent="1">
          <mxGeometry x="900" y="690" width="140" height="85" as="geometry" />
        </mxCell>
        <mxCell id="GM1cFpTCcB9UKRT-N5jJ-12" value="" style="endArrow=classic;html=1;rounded=0;exitX=0.5;exitY=0;exitDx=0;exitDy=0;entryX=0.5;entryY=1;entryDx=0;entryDy=0;" edge="1" parent="1" source="GM1cFpTCcB9UKRT-N5jJ-10" target="GM1cFpTCcB9UKRT-N5jJ-11">
          <mxGeometry width="50" height="50" relative="1" as="geometry">
            <mxPoint x="1796.5" y="945" as="sourcePoint" />
            <mxPoint x="1805" y="885" as="targetPoint" />
            <Array as="points" />
          </mxGeometry>
        </mxCell>
        <mxCell id="GM1cFpTCcB9UKRT-N5jJ-13" value="extends" style="edgeLabel;html=1;align=center;verticalAlign=middle;resizable=0;points=[];" connectable="0" vertex="1" parent="GM1cFpTCcB9UKRT-N5jJ-12">
          <mxGeometry x="-0.2" relative="1" as="geometry">
            <mxPoint as="offset" />
          </mxGeometry>
        </mxCell>
        <mxCell id="GM1cFpTCcB9UKRT-N5jJ-14" value="CU06&lt;div&gt;Gestionar&amp;nbsp; campañas y eventos&lt;/div&gt;" style="ellipse;whiteSpace=wrap;html=1;strokeColor=light-dark(#FF3B00,#FFFFFF);" vertex="1" parent="1">
          <mxGeometry x="810" y="960" width="140" height="70" as="geometry" />
        </mxCell>
        <mxCell id="GM1cFpTCcB9UKRT-N5jJ-15" value="&lt;br&gt;&lt;div&gt;&lt;font style=&quot;vertical-align: inherit;&quot;&gt;Consultar&lt;/font&gt;&lt;/div&gt;" style="ellipse;whiteSpace=wrap;html=1;" vertex="1" parent="1">
          <mxGeometry x="1090" y="945" width="140" height="70" as="geometry" />
        </mxCell>
        <mxCell id="GM1cFpTCcB9UKRT-N5jJ-16" value="" style="endArrow=classic;html=1;rounded=0;exitX=0.5;exitY=0;exitDx=0;exitDy=0;entryX=0.5;entryY=1;entryDx=0;entryDy=0;" edge="1" parent="1" source="GM1cFpTCcB9UKRT-N5jJ-7" target="GM1cFpTCcB9UKRT-N5jJ-20">
          <mxGeometry width="50" height="50" relative="1" as="geometry">
            <mxPoint x="970" y="925" as="sourcePoint" />
            <mxPoint x="1000" y="725" as="targetPoint" />
            <Array as="points" />
          </mxGeometry>
        </mxCell>
        <mxCell id="GM1cFpTCcB9UKRT-N5jJ-17" value="extends" style="edgeLabel;html=1;align=center;verticalAlign=middle;resizable=0;points=[];" connectable="0" vertex="1" parent="GM1cFpTCcB9UKRT-N5jJ-16">
          <mxGeometry x="-0.2882" y="1" relative="1" as="geometry">
            <mxPoint as="offset" />
          </mxGeometry>
        </mxCell>
        <mxCell id="GM1cFpTCcB9UKRT-N5jJ-18" value="" style="endArrow=classic;html=1;rounded=0;exitX=1;exitY=0;exitDx=0;exitDy=0;entryX=0;entryY=0.5;entryDx=0;entryDy=0;" edge="1" parent="1" source="GM1cFpTCcB9UKRT-N5jJ-3" target="GM1cFpTCcB9UKRT-N5jJ-10">
          <mxGeometry width="50" height="50" relative="1" as="geometry">
            <mxPoint x="730" y="1025" as="sourcePoint" />
            <mxPoint x="840.3406014759155" y="878.4484850754498" as="targetPoint" />
          </mxGeometry>
        </mxCell>
        <mxCell id="GM1cFpTCcB9UKRT-N5jJ-19" value="Include" style="edgeLabel;html=1;align=center;verticalAlign=middle;resizable=0;points=[];" connectable="0" vertex="1" parent="GM1cFpTCcB9UKRT-N5jJ-18">
          <mxGeometry x="-0.2066" y="3" relative="1" as="geometry">
            <mxPoint as="offset" />
          </mxGeometry>
        </mxCell>
        <mxCell id="GM1cFpTCcB9UKRT-N5jJ-20" value="&lt;br&gt;&lt;div&gt;Modificar&lt;br&gt;Consultar&lt;/div&gt;&lt;div&gt;deshabilitar&lt;/div&gt;&lt;div&gt;eliminar&lt;/div&gt;" style="ellipse;whiteSpace=wrap;html=1;" vertex="1" parent="1">
          <mxGeometry x="760" y="460" width="140" height="85" as="geometry" />
        </mxCell>
        <mxCell id="GM1cFpTCcB9UKRT-N5jJ-21" value="&lt;div&gt;CU08&lt;/div&gt;Gestionar donaciones" style="ellipse;whiteSpace=wrap;html=1;strokeColor=light-dark(#FF0F0F,#FFFFFF);" vertex="1" parent="1">
          <mxGeometry x="650" y="1090" width="120" height="80" as="geometry" />
        </mxCell>
        <mxCell id="GM1cFpTCcB9UKRT-N5jJ-22" value="&lt;br&gt;&lt;div&gt;Consultar&lt;/div&gt;" style="ellipse;whiteSpace=wrap;html=1;direction=west;" vertex="1" parent="1">
          <mxGeometry x="750" y="1200" width="140" height="85" as="geometry" />
        </mxCell>
        <mxCell id="GM1cFpTCcB9UKRT-N5jJ-23" value="" style="endArrow=classic;html=1;rounded=0;entryX=0.5;entryY=0;entryDx=0;entryDy=0;exitX=1;exitY=1;exitDx=0;exitDy=0;" edge="1" parent="1" source="GM1cFpTCcB9UKRT-N5jJ-3" target="GM1cFpTCcB9UKRT-N5jJ-21">
          <mxGeometry width="50" height="50" relative="1" as="geometry">
            <mxPoint x="820" y="1020" as="sourcePoint" />
            <mxPoint x="628" y="1266" as="targetPoint" />
          </mxGeometry>
        </mxCell>
        <mxCell id="GM1cFpTCcB9UKRT-N5jJ-24" value="Include" style="edgeLabel;html=1;align=center;verticalAlign=middle;resizable=0;points=[];" connectable="0" vertex="1" parent="GM1cFpTCcB9UKRT-N5jJ-23">
          <mxGeometry x="-0.1048" y="-3" relative="1" as="geometry">
            <mxPoint x="-1" as="offset" />
          </mxGeometry>
        </mxCell>
        <mxCell id="GM1cFpTCcB9UKRT-N5jJ-25" value="" style="endArrow=classic;html=1;rounded=0;entryX=1;entryY=0.5;entryDx=0;entryDy=0;" edge="1" parent="1" source="GM1cFpTCcB9UKRT-N5jJ-21" target="GM1cFpTCcB9UKRT-N5jJ-22">
          <mxGeometry width="50" height="50" relative="1" as="geometry">
            <mxPoint x="970" y="1360" as="sourcePoint" />
            <mxPoint x="1085" y="1402" as="targetPoint" />
            <Array as="points" />
          </mxGeometry>
        </mxCell>
        <mxCell id="GM1cFpTCcB9UKRT-N5jJ-26" value="extends" style="edgeLabel;html=1;align=center;verticalAlign=middle;resizable=0;points=[];" connectable="0" vertex="1" parent="GM1cFpTCcB9UKRT-N5jJ-25">
          <mxGeometry x="-0.2" relative="1" as="geometry">
            <mxPoint x="-22" as="offset" />
          </mxGeometry>
        </mxCell>
      </root>
    </mxGraphModel>
  </diagram>
  <diagram id="-wVyqkBrLxDAYCLcJabm" name="Ciudadano">
    <mxGraphModel grid="0" page="1" gridSize="10" guides="1" tooltips="1" connect="1" arrows="1" fold="1" pageScale="1" pageWidth="827" pageHeight="1169" math="0" shadow="0">
      <root>
        <mxCell id="0" />
        <mxCell id="1" parent="0" />
        <mxCell id="JbLui9v4h1kRnsS5xXBV-1" value="" style="edgeStyle=orthogonalEdgeStyle;rounded=0;orthogonalLoop=1;jettySize=auto;html=1;" edge="1" parent="1" source="JbLui9v4h1kRnsS5xXBV-2" target="JbLui9v4h1kRnsS5xXBV-3">
          <mxGeometry relative="1" as="geometry" />
        </mxCell>
        <mxCell id="JbLui9v4h1kRnsS5xXBV-2" value="Ciudadano" style="shape=umlActor;verticalLabelPosition=bottom;verticalAlign=top;html=1;outlineConnect=0;" vertex="1" parent="1">
          <mxGeometry x="370" y="660" width="30" height="60" as="geometry" />
        </mxCell>
        <mxCell id="JbLui9v4h1kRnsS5xXBV-3" value="&lt;div&gt;CU1&lt;/div&gt;Iniciar sesión" style="ellipse;whiteSpace=wrap;html=1;strokeColor=light-dark(#FF0000,#FFFFFF);" vertex="1" parent="1">
          <mxGeometry x="478" y="655" width="140" height="70" as="geometry" />
        </mxCell>
        <mxCell id="JbLui9v4h1kRnsS5xXBV-4" value="" style="endArrow=block;endSize=16;endFill=0;html=1;rounded=0;exitX=0.371;exitY=0.003;exitDx=0;exitDy=0;exitPerimeter=0;entryX=0;entryY=0.5;entryDx=0;entryDy=0;" edge="1" parent="1" source="JbLui9v4h1kRnsS5xXBV-3" target="JbLui9v4h1kRnsS5xXBV-7">
          <mxGeometry x="-1" y="40" width="160" relative="1" as="geometry">
            <mxPoint x="440" y="555" as="sourcePoint" />
            <mxPoint x="620" y="425" as="targetPoint" />
            <Array as="points">
              <mxPoint x="530" y="425" />
            </Array>
            <mxPoint x="30" y="39" as="offset" />
          </mxGeometry>
        </mxCell>
        <mxCell id="JbLui9v4h1kRnsS5xXBV-5" value="Include" style="edgeLabel;html=1;align=center;verticalAlign=middle;resizable=0;points=[];" connectable="0" vertex="1" parent="JbLui9v4h1kRnsS5xXBV-4">
          <mxGeometry x="-0.11" y="1" relative="1" as="geometry">
            <mxPoint as="offset" />
          </mxGeometry>
        </mxCell>
        <mxCell id="JbLui9v4h1kRnsS5xXBV-6" value="Include" style="endArrow=block;endSize=16;endFill=0;html=1;rounded=0;entryX=0.029;entryY=0.357;entryDx=0;entryDy=0;entryPerimeter=0;exitX=0.586;exitY=0.929;exitDx=0;exitDy=0;exitPerimeter=0;" edge="1" parent="1" source="JbLui9v4h1kRnsS5xXBV-3" target="JbLui9v4h1kRnsS5xXBV-14">
          <mxGeometry width="160" relative="1" as="geometry">
            <mxPoint x="750" y="710" as="sourcePoint" />
            <mxPoint x="976.9399999999998" y="742.97" as="targetPoint" />
          </mxGeometry>
        </mxCell>
        <mxCell id="JbLui9v4h1kRnsS5xXBV-7" value="&lt;div&gt;CU03&lt;/div&gt;Gestionar perfil" style="ellipse;whiteSpace=wrap;html=1;strokeColor=light-dark(#FF0F0F,#FFFFFF);" vertex="1" parent="1">
          <mxGeometry x="660" y="380" width="120" height="80" as="geometry" />
        </mxCell>
        <mxCell id="JbLui9v4h1kRnsS5xXBV-8" value="" style="endArrow=classic;html=1;rounded=0;exitX=1;exitY=0.5;exitDx=0;exitDy=0;entryX=0;entryY=0.5;entryDx=0;entryDy=0;" edge="1" parent="1" source="JbLui9v4h1kRnsS5xXBV-14" target="JbLui9v4h1kRnsS5xXBV-15">
          <mxGeometry width="50" height="50" relative="1" as="geometry">
            <mxPoint x="919.9974746830585" y="804.9987373415292" as="sourcePoint" />
            <mxPoint x="1240" y="935" as="targetPoint" />
            <Array as="points" />
          </mxGeometry>
        </mxCell>
        <mxCell id="JbLui9v4h1kRnsS5xXBV-9" value="extends" style="edgeLabel;html=1;align=center;verticalAlign=middle;resizable=0;points=[];" connectable="0" vertex="1" parent="JbLui9v4h1kRnsS5xXBV-8">
          <mxGeometry x="-0.2" relative="1" as="geometry">
            <mxPoint as="offset" />
          </mxGeometry>
        </mxCell>
        <mxCell id="JbLui9v4h1kRnsS5xXBV-10" value="&lt;div&gt;CU05&lt;/div&gt;Gestionar Adopciones" style="ellipse;whiteSpace=wrap;html=1;strokeColor=light-dark(#FF0505,#FFFFFF);" vertex="1" parent="1">
          <mxGeometry x="870" y="600" width="120" height="80" as="geometry" />
        </mxCell>
        <mxCell id="JbLui9v4h1kRnsS5xXBV-11" value="&lt;br&gt;&lt;div&gt;Consultar&lt;/div&gt;" style="ellipse;whiteSpace=wrap;html=1;" vertex="1" parent="1">
          <mxGeometry x="790" y="470" width="140" height="85" as="geometry" />
        </mxCell>
        <mxCell id="JbLui9v4h1kRnsS5xXBV-12" value="" style="endArrow=classic;html=1;rounded=0;exitX=0.5;exitY=0;exitDx=0;exitDy=0;entryX=0.5;entryY=1;entryDx=0;entryDy=0;" edge="1" parent="1" source="JbLui9v4h1kRnsS5xXBV-10" target="JbLui9v4h1kRnsS5xXBV-11">
          <mxGeometry width="50" height="50" relative="1" as="geometry">
            <mxPoint x="1686.5" y="725" as="sourcePoint" />
            <mxPoint x="1695" y="665" as="targetPoint" />
            <Array as="points" />
          </mxGeometry>
        </mxCell>
        <mxCell id="JbLui9v4h1kRnsS5xXBV-13" value="extends" style="edgeLabel;html=1;align=center;verticalAlign=middle;resizable=0;points=[];" connectable="0" vertex="1" parent="JbLui9v4h1kRnsS5xXBV-12">
          <mxGeometry x="-0.2" relative="1" as="geometry">
            <mxPoint as="offset" />
          </mxGeometry>
        </mxCell>
        <mxCell id="JbLui9v4h1kRnsS5xXBV-14" value="CU06&lt;div&gt;Gestionar&amp;nbsp; campañas y eventos&lt;/div&gt;" style="ellipse;whiteSpace=wrap;html=1;strokeColor=light-dark(#FF3B00,#FFFFFF);" vertex="1" parent="1">
          <mxGeometry x="590" y="820" width="140" height="70" as="geometry" />
        </mxCell>
        <mxCell id="JbLui9v4h1kRnsS5xXBV-15" value="&lt;br&gt;&lt;div&gt;&lt;font style=&quot;vertical-align: inherit;&quot;&gt;Consultar&lt;/font&gt;&lt;/div&gt;" style="ellipse;whiteSpace=wrap;html=1;" vertex="1" parent="1">
          <mxGeometry x="810" y="810" width="140" height="70" as="geometry" />
        </mxCell>
        <mxCell id="JbLui9v4h1kRnsS5xXBV-16" value="" style="endArrow=classic;html=1;rounded=0;exitX=0.5;exitY=0;exitDx=0;exitDy=0;entryX=0.5;entryY=1;entryDx=0;entryDy=0;" edge="1" parent="1" source="JbLui9v4h1kRnsS5xXBV-7" target="JbLui9v4h1kRnsS5xXBV-20">
          <mxGeometry width="50" height="50" relative="1" as="geometry">
            <mxPoint x="860" y="705" as="sourcePoint" />
            <mxPoint x="890" y="505" as="targetPoint" />
            <Array as="points" />
          </mxGeometry>
        </mxCell>
        <mxCell id="JbLui9v4h1kRnsS5xXBV-17" value="extends" style="edgeLabel;html=1;align=center;verticalAlign=middle;resizable=0;points=[];" connectable="0" vertex="1" parent="JbLui9v4h1kRnsS5xXBV-16">
          <mxGeometry x="-0.2882" y="1" relative="1" as="geometry">
            <mxPoint as="offset" />
          </mxGeometry>
        </mxCell>
        <mxCell id="JbLui9v4h1kRnsS5xXBV-18" value="" style="endArrow=classic;html=1;rounded=0;exitX=0.75;exitY=0.25;exitDx=0;exitDy=0;entryX=0;entryY=0.5;entryDx=0;entryDy=0;exitPerimeter=0;" edge="1" parent="1" source="JbLui9v4h1kRnsS5xXBV-21" target="JbLui9v4h1kRnsS5xXBV-10">
          <mxGeometry width="50" height="50" relative="1" as="geometry">
            <mxPoint x="620" y="805" as="sourcePoint" />
            <mxPoint x="730.3406014759155" y="658.4484850754498" as="targetPoint" />
          </mxGeometry>
        </mxCell>
        <mxCell id="JbLui9v4h1kRnsS5xXBV-19" value="Include" style="edgeLabel;html=1;align=center;verticalAlign=middle;resizable=0;points=[];" connectable="0" vertex="1" parent="JbLui9v4h1kRnsS5xXBV-18">
          <mxGeometry x="-0.2066" y="3" relative="1" as="geometry">
            <mxPoint as="offset" />
          </mxGeometry>
        </mxCell>
        <mxCell id="JbLui9v4h1kRnsS5xXBV-20" value="&lt;br&gt;&lt;div&gt;Modificar&lt;br&gt;Consultar&lt;/div&gt;&lt;div&gt;deshabilitar&lt;/div&gt;&lt;div&gt;eliminar&lt;/div&gt;" style="ellipse;whiteSpace=wrap;html=1;" vertex="1" parent="1">
          <mxGeometry x="650" y="240" width="140" height="85" as="geometry" />
        </mxCell>
        <mxCell id="JbLui9v4h1kRnsS5xXBV-21" value="&lt;div&gt;CU04&lt;/div&gt;Gestión rescates" style="ellipse;whiteSpace=wrap;html=1;strokeColor=light-dark(#FF0F0F,#FFFFFF);" vertex="1" parent="1">
          <mxGeometry x="690" y="630" width="120" height="80" as="geometry" />
        </mxCell>
        <mxCell id="JbLui9v4h1kRnsS5xXBV-22" value="&lt;br&gt;&lt;div&gt;Consultar&lt;/div&gt;" style="ellipse;whiteSpace=wrap;html=1;direction=west;" vertex="1" parent="1">
          <mxGeometry x="618" y="490" width="140" height="85" as="geometry" />
        </mxCell>
        <mxCell id="JbLui9v4h1kRnsS5xXBV-23" value="" style="endArrow=classic;html=1;rounded=0;entryX=0.025;entryY=0.613;entryDx=0;entryDy=0;exitX=1.014;exitY=0.357;exitDx=0;exitDy=0;exitPerimeter=0;entryPerimeter=0;" edge="1" parent="1" source="JbLui9v4h1kRnsS5xXBV-3" target="JbLui9v4h1kRnsS5xXBV-21">
          <mxGeometry width="50" height="50" relative="1" as="geometry">
            <mxPoint x="710" y="800" as="sourcePoint" />
            <mxPoint x="518" y="1046" as="targetPoint" />
          </mxGeometry>
        </mxCell>
        <mxCell id="JbLui9v4h1kRnsS5xXBV-24" value="Include" style="edgeLabel;html=1;align=center;verticalAlign=middle;resizable=0;points=[];" connectable="0" vertex="1" parent="JbLui9v4h1kRnsS5xXBV-23">
          <mxGeometry x="-0.1048" y="-3" relative="1" as="geometry">
            <mxPoint x="-1" as="offset" />
          </mxGeometry>
        </mxCell>
        <mxCell id="JbLui9v4h1kRnsS5xXBV-25" value="" style="endArrow=classic;html=1;rounded=0;entryX=0.5;entryY=0;entryDx=0;entryDy=0;exitX=0.5;exitY=0;exitDx=0;exitDy=0;" edge="1" parent="1" source="JbLui9v4h1kRnsS5xXBV-21" target="JbLui9v4h1kRnsS5xXBV-22">
          <mxGeometry width="50" height="50" relative="1" as="geometry">
            <mxPoint x="860" y="1140" as="sourcePoint" />
            <mxPoint x="975" y="1182" as="targetPoint" />
            <Array as="points" />
          </mxGeometry>
        </mxCell>
        <mxCell id="JbLui9v4h1kRnsS5xXBV-26" value="extends" style="edgeLabel;html=1;align=center;verticalAlign=middle;resizable=0;points=[];" connectable="0" vertex="1" parent="JbLui9v4h1kRnsS5xXBV-25">
          <mxGeometry x="-0.2" relative="1" as="geometry">
            <mxPoint x="-22" as="offset" />
          </mxGeometry>
        </mxCell>
      </root>
    </mxGraphModel>
  </diagram>
</mxfile>
